<svg id="svg" version="1.1" xmlns="http://www.w3.org/2000/svg" xmlns:xlink="http://www.w3.org/1999/xlink" width="400" height="400" viewBox="0, 0, 400,400"><g id="svgg"><path id="path0" d="M208.655 235.400 C 208.529 235.730,208.104 236.000,207.713 236.000 C 207.077 236.000,207.000 236.430,207.000 240.000 C 207.000 243.898,207.023 244.000,207.913 244.000 C 208.414 244.000,208.933 244.282,209.066 244.627 C 209.249 245.105,209.792 245.227,211.353 245.143 C 213.391 245.032,213.401 245.038,213.525 246.316 C 213.637 247.460,213.539 247.600,212.625 247.600 C 211.981 247.600,211.600 247.377,211.600 247.000 C 211.600 246.541,211.093 246.400,209.439 246.400 L 207.277 246.400 207.139 248.400 C 207.010 250.249,207.068 250.400,207.900 250.400 C 208.433 250.400,208.800 250.644,208.800 251.000 C 208.800 251.715,214.496 251.884,215.317 251.194 C 217.988 248.947,218.000 248.927,218.000 246.419 C 218.000 245.089,217.832 244.000,217.627 244.000 C 217.422 244.000,217.145 243.658,217.013 243.240 C 216.880 242.822,216.328 242.368,215.786 242.232 C 215.244 242.096,214.800 241.808,214.800 241.592 C 214.800 241.377,214.080 241.200,213.200 241.200 C 211.689 241.200,211.600 241.133,211.600 240.000 C 211.600 238.684,213.006 238.229,213.455 239.400 C 213.911 240.588,218.000 240.213,218.000 238.983 C 218.000 238.424,217.817 237.749,217.594 237.483 C 215.271 234.720,215.435 234.800,212.062 234.800 C 209.608 234.800,208.833 234.936,208.655 235.400 M225.417 235.227 C 225.562 235.462,225.310 235.751,224.857 235.869 C 223.662 236.182,223.325 250.401,224.513 250.400 C 224.904 250.400,225.329 250.670,225.455 251.000 C 225.719 251.688,232.400 251.902,232.400 251.223 C 232.400 251.015,232.895 250.553,233.500 250.196 L 234.600 249.546 234.600 243.305 L 234.600 237.063 233.469 235.932 C 232.278 234.739,224.706 234.077,225.417 235.227 M240.400 243.179 L 240.400 251.600 245.200 251.600 L 250.000 251.600 249.995 250.500 C 249.981 247.837,249.692 247.538,247.246 247.652 L 245.000 247.756 244.800 241.378 L 244.600 235.000 242.500 234.879 L 240.400 234.758 240.400 243.179 M256.100 235.055 C 254.981 235.528,255.526 250.400,256.663 250.400 C 256.972 250.400,257.329 250.670,257.455 251.000 C 257.719 251.688,264.400 251.902,264.400 251.223 C 264.400 251.015,264.944 250.524,265.609 250.131 L 266.817 249.417 266.709 242.209 L 266.600 235.000 264.600 235.000 L 262.600 235.000 262.496 241.000 C 262.371 248.214,262.401 248.098,260.828 247.550 L 259.620 247.129 259.510 241.064 L 259.400 235.000 258.000 234.922 C 257.230 234.879,256.375 234.939,256.100 235.055 M271.743 235.403 C 271.072 237.152,271.988 238.862,273.523 238.729 L 275.000 238.600 275.110 245.100 L 275.220 251.600 277.200 251.600 L 279.180 251.600 279.290 245.100 L 279.400 238.600 280.860 238.727 C 282.333 238.855,283.460 236.591,282.609 235.215 C 282.165 234.496,272.024 234.672,271.743 235.403 M288.267 235.067 C 288.120 235.213,288.000 238.993,288.000 243.467 L 288.000 251.600 290.000 251.600 L 292.000 251.600 292.000 243.200 L 292.000 234.800 290.267 234.800 C 289.313 234.800,288.413 234.920,288.267 235.067 M299.800 235.851 C 299.360 236.408,298.775 237.107,298.500 237.404 C 297.711 238.255,297.801 248.638,298.600 248.945 C 298.930 249.071,299.200 249.451,299.200 249.787 C 299.200 250.124,299.476 250.400,299.813 250.400 C 300.149 250.400,300.529 250.670,300.655 251.000 C 301.190 252.393,306.974 251.800,308.587 250.187 L 310.000 248.773 310.000 242.787 C 310.000 239.494,309.842 236.845,309.648 236.900 C 309.455 236.955,308.833 236.505,308.267 235.900 C 306.759 234.288,301.060 234.254,299.800 235.851 M316.000 243.200 L 316.000 251.600 318.200 251.600 L 320.400 251.600 320.400 248.567 C 320.400 246.317,320.529 245.577,320.900 245.701 C 321.175 245.793,321.403 246.144,321.406 246.480 C 321.409 246.816,321.637 247.363,321.913 247.695 C 322.188 248.027,322.299 248.599,322.158 248.966 C 321.988 249.409,322.086 249.594,322.451 249.516 C 322.825 249.437,322.976 249.752,322.925 250.500 C 322.850 251.585,322.882 251.600,325.225 251.600 L 327.600 251.600 327.600 243.251 L 327.600 234.901 325.300 234.951 L 323.000 235.000 323.000 238.901 C 323.000 243.126,322.872 243.486,322.071 241.500 C 321.783 240.785,321.373 239.878,321.160 239.484 C 320.947 239.090,320.887 238.583,321.027 238.357 C 321.166 238.131,320.947 237.703,320.541 237.406 C 320.134 237.109,319.936 236.730,320.102 236.565 C 320.729 235.937,319.078 234.800,317.538 234.800 L 316.000 234.800 316.000 243.200 M335.055 235.400 C 334.929 235.730,334.504 236.000,334.113 236.000 C 333.477 236.000,333.400 236.430,333.400 240.000 C 333.400 243.898,333.423 244.000,334.313 244.000 C 334.814 244.000,335.329 244.270,335.455 244.600 C 335.621 245.031,336.294 245.200,337.843 245.200 C 339.973 245.200,340.000 245.215,340.000 246.400 C 340.000 247.413,339.844 247.600,339.000 247.600 C 338.378 247.600,338.000 247.373,338.000 247.000 C 338.000 246.539,337.489 246.400,335.800 246.400 L 333.600 246.400 333.600 248.237 C 333.600 249.738,333.746 250.113,334.400 250.284 C 334.840 250.399,335.200 250.742,335.200 251.047 C 335.200 251.475,335.975 251.600,338.624 251.600 C 340.804 251.600,341.957 251.455,341.800 251.200 C 341.664 250.980,341.717 250.800,341.918 250.800 C 343.259 250.800,344.400 248.785,344.400 246.419 C 344.400 245.089,344.232 244.000,344.027 244.000 C 343.822 244.000,343.545 243.658,343.413 243.240 C 343.280 242.822,342.728 242.368,342.186 242.232 C 341.644 242.096,341.200 241.808,341.200 241.592 C 341.200 241.377,340.480 241.200,339.600 241.200 C 338.089 241.200,338.000 241.133,338.000 240.000 C 338.000 238.684,339.406 238.229,339.855 239.400 C 340.311 240.588,344.400 240.213,344.400 238.983 C 344.400 238.424,344.217 237.749,343.994 237.483 C 341.671 234.720,341.835 234.800,338.462 234.800 C 336.008 234.800,335.233 234.936,335.055 235.400 M230.315 242.805 C 230.447 247.580,230.350 248.017,229.224 247.722 C 228.225 247.461,227.924 239.057,228.900 238.667 C 230.004 238.225,230.204 238.810,230.315 242.805 M305.515 242.805 C 305.653 247.796,305.615 247.922,304.037 247.691 L 302.800 247.509 302.800 243.182 C 302.800 239.013,302.833 238.849,303.700 238.685 C 305.309 238.380,305.398 238.582,305.515 242.805 M320.611 244.018 C 320.753 244.247,320.682 244.660,320.454 244.935 C 320.225 245.211,319.975 246.778,319.899 248.418 C 319.767 251.238,319.755 251.188,319.679 247.500 C 319.607 243.932,319.894 242.858,320.611 244.018 " stroke="none" fill="#070707" fill-rule="evenodd"></path><path id="path1" d="M58.100 144.710 L 51.600 144.820 51.600 161.610 C 51.600 177.765,51.474 179.533,50.450 177.703 C 50.235 177.320,49.926 177.141,49.762 177.304 C 49.599 177.468,49.180 177.351,48.832 177.045 C 48.485 176.738,47.570 176.142,46.800 175.719 C 43.880 174.117,42.400 173.107,42.400 172.718 C 42.400 172.496,42.143 172.413,41.829 172.533 C 41.515 172.654,41.048 172.499,40.791 172.189 C 40.534 171.879,40.206 171.654,40.062 171.688 C 39.616 171.795,36.800 169.943,36.800 169.543 C 36.800 169.335,36.575 169.212,36.300 169.270 C 35.731 169.390,33.647 168.155,32.904 167.257 C 31.952 166.107,31.799 167.333,31.680 177.081 C 31.557 187.086,31.710 188.168,33.200 187.865 C 33.310 187.842,34.210 188.377,35.200 189.053 C 36.190 189.728,37.180 190.356,37.400 190.447 C 38.530 190.915,40.800 192.528,40.800 192.863 C 40.800 193.074,40.991 193.129,41.225 192.984 C 41.459 192.840,42.018 193.054,42.467 193.461 C 42.916 193.867,43.310 194.135,43.342 194.054 C 43.458 193.763,46.400 195.690,46.400 196.057 C 46.400 196.265,46.626 196.383,46.901 196.320 C 47.525 196.177,50.400 197.839,50.400 198.342 C 50.400 198.545,50.672 198.686,51.004 198.656 C 51.537 198.607,51.607 201.683,51.598 224.900 L 51.589 251.200 61.794 251.200 L 72.000 251.200 72.000 210.624 C 72.000 186.763,72.150 169.955,72.363 169.823 C 72.794 169.557,76.000 171.576,76.000 172.114 C 76.000 172.318,76.257 172.387,76.571 172.267 C 76.885 172.146,77.355 172.305,77.616 172.619 C 77.877 172.934,78.236 173.101,78.413 172.992 C 78.591 172.882,79.086 173.238,79.515 173.783 C 79.943 174.327,80.407 174.660,80.544 174.522 C 80.682 174.384,81.175 174.615,81.640 175.036 C 82.104 175.456,82.510 175.735,82.542 175.654 C 82.658 175.363,85.600 177.290,85.600 177.657 C 85.600 177.865,85.825 177.999,86.100 177.954 C 86.760 177.848,87.887 178.349,89.594 179.506 C 90.360 180.026,91.567 180.726,92.275 181.062 C 92.983 181.398,94.041 182.117,94.626 182.659 C 95.210 183.201,95.789 183.544,95.912 183.421 C 96.035 183.299,96.484 183.514,96.910 183.899 C 97.335 184.285,97.800 184.588,97.942 184.572 C 98.451 184.518,100.800 186.088,100.800 186.482 C 100.800 186.704,101.057 186.787,101.371 186.667 C 101.685 186.546,102.160 186.711,102.428 187.033 C 102.695 187.356,103.001 187.532,103.108 187.425 C 103.215 187.319,104.044 187.738,104.951 188.356 C 105.858 188.975,106.780 189.556,107.000 189.647 C 108.135 190.117,110.400 191.729,110.400 192.066 C 110.400 192.280,110.739 192.346,111.153 192.215 C 111.628 192.064,111.992 192.202,112.140 192.588 C 112.955 194.712,113.200 192.543,113.200 183.200 C 113.200 172.235,113.246 172.454,110.695 171.309 C 110.093 171.038,109.600 170.614,109.600 170.366 C 109.600 170.118,109.323 170.021,108.985 170.150 C 108.633 170.285,108.271 170.129,108.139 169.786 C 108.013 169.456,107.704 169.223,107.454 169.268 C 106.832 169.379,104.000 167.617,104.000 167.118 C 104.000 166.896,103.743 166.813,103.429 166.933 C 103.115 167.054,102.643 166.893,102.380 166.576 C 102.117 166.259,101.664 166.000,101.374 166.000 C 101.083 166.000,100.594 165.641,100.287 165.203 C 99.980 164.764,99.595 164.539,99.431 164.702 C 99.268 164.865,98.900 164.677,98.612 164.284 C 98.325 163.891,97.935 163.609,97.745 163.657 C 97.386 163.748,95.678 162.835,93.354 161.312 C 92.609 160.824,92.000 160.503,92.000 160.600 C 92.000 160.697,91.345 160.331,90.544 159.788 C 89.743 159.245,88.923 158.800,88.721 158.800 C 88.518 158.800,88.481 158.592,88.638 158.338 C 88.820 158.044,88.747 157.985,88.437 158.177 C 88.161 158.348,87.596 158.158,87.133 157.739 C 86.684 157.333,86.290 157.065,86.258 157.146 C 86.139 157.445,83.200 155.505,83.200 155.127 C 83.200 154.911,82.980 154.807,82.710 154.897 C 82.441 154.986,81.856 154.857,81.410 154.608 C 79.101 153.322,77.600 152.284,77.600 151.973 C 77.600 151.782,77.332 151.728,77.003 151.854 C 76.663 151.985,76.301 151.808,76.161 151.444 C 76.027 151.092,75.772 150.894,75.595 151.003 C 75.203 151.245,72.000 149.198,72.000 148.705 C 72.000 148.511,71.809 148.471,71.575 148.616 C 71.341 148.760,70.846 148.604,70.475 148.268 C 70.104 147.932,69.668 147.640,69.506 147.618 C 68.826 147.529,66.400 145.888,66.400 145.518 C 66.400 145.296,66.135 145.216,65.811 145.341 C 65.486 145.465,65.081 145.349,64.911 145.083 C 64.684 144.730,62.846 144.630,58.100 144.710 M302.400 150.400 C 302.400 150.620,301.590 150.800,300.600 150.800 C 299.610 150.800,298.800 150.980,298.800 151.200 C 298.800 151.420,298.350 151.600,297.800 151.600 C 297.250 151.600,296.800 151.750,296.800 151.932 C 296.800 152.115,296.306 152.520,295.703 152.832 C 294.140 153.641,292.400 155.239,292.400 155.866 C 292.400 156.160,292.220 156.400,292.000 156.400 C 291.780 156.400,291.600 156.670,291.600 157.000 C 291.600 157.330,291.420 157.600,291.200 157.600 C 290.980 157.600,290.800 157.960,290.800 158.400 C 290.800 158.840,290.620 159.200,290.400 159.200 C 290.180 159.200,290.000 159.650,290.000 160.200 C 290.000 160.750,289.820 161.200,289.600 161.200 C 289.380 161.200,289.200 161.920,289.200 162.800 C 289.200 163.680,289.020 164.400,288.800 164.400 C 288.580 164.400,288.400 164.775,288.400 165.233 C 288.400 166.920,289.402 165.700,289.522 163.869 C 289.589 162.841,289.814 162.000,290.022 162.000 C 290.230 162.000,290.400 161.657,290.400 161.238 C 290.400 159.174,295.292 152.830,296.900 152.809 C 297.285 152.804,297.600 152.620,297.600 152.400 C 297.600 152.180,298.050 152.000,298.600 152.000 C 299.150 152.000,299.600 151.820,299.600 151.600 C 299.600 151.380,300.575 151.200,301.767 151.200 C 302.959 151.200,304.219 151.091,304.567 150.957 C 305.675 150.532,305.249 150.000,303.800 150.000 C 303.030 150.000,302.400 150.180,302.400 150.400 M306.976 150.613 C 307.433 150.958,308.629 151.200,309.876 151.200 C 311.044 151.200,312.000 151.380,312.000 151.600 C 312.000 151.820,312.355 152.000,312.788 152.000 C 313.539 152.000,315.280 152.847,317.455 154.273 C 318.630 155.043,321.600 159.274,321.600 160.178 C 321.600 160.520,321.780 160.800,322.000 160.800 C 322.220 160.800,322.400 161.595,322.400 162.567 C 322.400 164.603,322.727 165.692,323.242 165.374 C 323.731 165.072,323.697 163.600,323.200 163.600 C 322.980 163.600,322.800 162.779,322.800 161.776 C 322.800 160.663,322.644 160.049,322.400 160.200 C 322.173 160.340,322.000 160.004,322.000 159.424 C 322.000 158.861,321.820 158.400,321.600 158.400 C 321.380 158.400,321.200 158.120,321.200 157.777 C 321.200 156.913,317.677 153.453,316.100 152.769 C 315.385 152.459,314.800 152.069,314.800 151.902 C 314.800 151.736,314.350 151.600,313.800 151.600 C 313.250 151.600,312.800 151.420,312.800 151.200 C 312.800 150.980,311.990 150.800,311.000 150.800 C 310.010 150.800,309.200 150.620,309.200 150.400 C 309.200 150.180,308.525 150.006,307.700 150.013 C 306.294 150.025,306.249 150.062,306.976 150.613 M212.510 151.097 L 228.020 151.209 227.910 157.705 L 227.800 164.200 224.400 164.211 C 222.530 164.216,220.775 164.362,220.500 164.534 C 220.106 164.781,220.021 170.931,220.097 193.524 L 220.195 222.200 220.300 193.700 L 220.405 165.200 224.195 165.200 C 228.780 165.200,228.473 165.796,228.314 157.200 L 228.200 151.000 212.600 150.993 L 197.000 150.986 212.510 151.097 M243.698 186.495 L 243.796 222.200 243.900 186.700 L 244.004 151.200 257.993 151.200 L 271.982 151.200 272.105 158.200 L 272.229 165.201 272.214 158.100 L 272.200 151.000 257.900 150.895 L 243.600 150.790 243.698 186.495 M339.500 151.357 C 338.501 152.115,338.402 222.000,339.400 222.000 C 339.929 222.000,340.000 217.801,340.000 186.609 L 340.000 151.218 347.100 151.099 L 354.200 150.980 347.200 150.903 C 341.900 150.844,340.030 150.954,339.500 151.357 M359.600 163.232 L 359.600 175.600 356.900 175.647 C 355.415 175.673,354.065 175.673,353.900 175.647 C 353.735 175.621,353.600 175.870,353.600 176.200 C 353.600 176.969,359.565 177.075,360.320 176.320 C 360.673 175.967,360.800 172.569,360.800 163.520 L 360.800 151.200 367.200 151.200 L 373.600 151.200 373.600 186.600 C 373.600 217.800,373.671 222.000,374.200 222.000 C 374.729 222.000,374.800 217.776,374.800 186.386 L 374.800 150.772 367.200 150.817 L 359.600 150.863 359.600 163.232 M303.305 164.308 L 302.411 165.400 302.405 186.105 C 302.400 207.474,302.421 207.776,304.000 209.079 C 305.494 210.312,308.800 208.987,308.800 207.154 C 308.800 206.827,308.969 206.389,309.176 206.180 C 309.622 205.729,309.937 190.799,309.500 190.800 C 309.335 190.800,309.200 193.860,309.200 197.600 C 309.200 201.867,309.051 204.400,308.800 204.400 C 308.580 204.400,308.400 205.136,308.400 206.036 C 308.400 207.773,307.302 209.160,305.905 209.187 C 305.059 209.203,303.600 208.016,303.600 207.311 C 303.600 207.030,303.420 206.800,303.200 206.800 C 302.939 206.800,302.800 199.733,302.800 186.400 C 302.800 173.067,302.939 166.000,303.200 166.000 C 303.420 166.000,303.600 165.640,303.600 165.200 C 303.600 164.756,303.867 164.400,304.200 164.400 C 304.530 164.400,304.800 164.220,304.800 164.000 C 304.800 163.292,306.774 163.574,307.600 164.400 C 308.133 164.933,308.400 165.733,308.400 166.800 C 308.400 167.680,308.575 168.400,308.789 168.400 C 309.017 168.400,309.229 170.758,309.301 174.100 L 309.424 179.800 309.512 173.124 C 309.566 169.006,309.447 166.352,309.200 166.200 C 308.980 166.064,308.800 165.578,308.800 165.120 C 308.800 163.016,304.843 162.430,303.305 164.308 M197.320 164.564 C 197.410 164.833,199.103 165.044,201.730 165.114 L 205.995 165.227 206.100 193.714 L 206.205 222.200 206.303 193.524 C 206.369 174.078,206.267 164.765,205.986 164.591 C 205.218 164.117,197.164 164.091,197.320 164.564 M258.000 171.600 C 258.000 175.600,258.150 178.000,258.400 178.000 C 258.650 178.000,258.800 175.600,258.800 171.600 C 258.800 167.600,258.650 165.200,258.400 165.200 C 258.150 165.200,258.000 167.600,258.000 171.600 M288.586 187.400 C 288.586 198.620,288.637 203.268,288.700 197.728 C 288.762 192.188,288.762 183.008,288.700 177.328 C 288.637 171.648,288.586 176.180,288.586 187.400 M271.000 184.500 L 271.000 191.000 264.817 191.111 C 257.328 191.245,258.014 190.340,258.006 200.100 L 258.000 208.000 265.391 208.000 L 272.782 208.000 272.905 214.900 L 273.028 221.800 273.014 214.800 L 273.000 207.800 265.900 207.691 L 258.800 207.582 258.800 199.991 L 258.800 192.400 264.953 192.400 C 270.996 192.400,271.111 192.384,271.348 191.500 C 271.698 190.192,271.655 178.000,271.300 178.000 C 271.135 177.999,271.000 180.924,271.000 184.500 M359.856 189.878 C 359.239 190.495,359.576 222.000,360.200 222.000 C 360.723 222.000,360.800 219.958,360.800 206.024 C 360.800 191.531,360.657 189.077,359.856 189.878 M323.369 199.000 C 323.370 203.620,323.428 205.455,323.499 203.078 C 323.570 200.701,323.569 196.921,323.498 194.678 C 323.427 192.435,323.369 194.380,323.369 199.000 M322.656 208.278 C 322.515 208.418,322.400 209.313,322.400 210.267 C 322.400 211.220,322.220 212.000,322.000 212.000 C 321.780 212.000,321.600 212.450,321.600 213.000 C 321.600 213.550,321.420 214.000,321.200 214.000 C 320.980 214.000,320.800 214.251,320.800 214.557 C 320.800 215.320,317.260 219.200,316.563 219.200 C 316.253 219.200,316.000 219.380,316.000 219.600 C 316.000 219.820,315.640 220.000,315.200 220.000 C 314.760 220.000,314.400 220.180,314.400 220.400 C 314.400 220.620,313.961 220.800,313.424 220.800 C 312.887 220.800,312.336 220.980,312.200 221.200 C 312.053 221.438,309.529 221.600,305.976 221.600 C 302.259 221.600,300.000 221.449,300.000 221.200 C 300.000 220.980,299.668 220.800,299.261 220.800 C 296.693 220.800,290.400 214.649,290.400 212.139 C 290.400 211.842,290.231 211.600,290.024 211.600 C 289.817 211.600,289.592 210.939,289.524 210.131 C 289.405 208.715,288.400 207.675,288.400 208.967 C 288.400 209.315,288.580 209.600,288.800 209.600 C 289.020 209.600,289.200 210.230,289.200 211.000 C 289.200 211.770,289.380 212.400,289.600 212.400 C 289.820 212.400,290.000 212.760,290.000 213.200 C 290.000 213.640,290.135 214.001,290.300 214.003 C 290.675 214.007,291.600 215.958,291.600 216.746 C 291.600 217.069,291.714 217.219,291.853 217.080 C 291.992 216.941,292.455 217.271,292.882 217.814 C 293.309 218.356,293.926 218.800,294.253 218.800 C 294.580 218.800,294.736 218.980,294.600 219.200 C 294.464 219.420,294.723 219.600,295.176 219.600 C 295.629 219.600,296.000 219.780,296.000 220.000 C 296.000 220.220,296.270 220.400,296.600 220.400 C 296.930 220.400,297.200 220.580,297.200 220.800 C 297.200 221.020,297.650 221.200,298.200 221.200 C 298.750 221.200,299.200 221.380,299.200 221.600 C 299.200 221.820,300.010 222.000,301.000 222.000 C 301.990 222.000,302.800 222.180,302.800 222.400 C 302.800 222.631,304.067 222.800,305.800 222.800 C 307.533 222.800,308.800 222.631,308.800 222.400 C 308.800 222.180,309.700 222.000,310.800 222.000 C 311.900 222.000,312.800 221.820,312.800 221.600 C 312.800 221.380,313.340 221.200,314.000 221.200 C 314.660 221.200,315.200 221.020,315.200 220.800 C 315.200 220.580,315.484 220.400,315.832 220.400 C 316.180 220.400,317.530 219.334,318.832 218.032 C 320.134 216.730,321.200 215.380,321.200 215.032 C 321.200 214.684,321.380 214.400,321.600 214.400 C 321.820 214.400,322.000 214.040,322.000 213.600 C 322.000 213.160,322.180 212.800,322.400 212.800 C 322.620 212.800,322.800 212.080,322.800 211.200 C 322.800 210.320,322.980 209.600,323.200 209.600 C 323.689 209.600,323.733 208.529,323.256 208.234 C 323.066 208.117,322.796 208.137,322.656 208.278 " stroke="none" fill="#3ab6fa" fill-rule="evenodd"></path><path id="path2" d="M134.000 184.793 C 134.000 220.444,133.929 225.200,133.400 225.200 C 133.070 225.200,132.800 225.020,132.800 224.800 C 132.800 224.580,132.440 224.400,132.000 224.400 C 131.560 224.400,131.200 224.220,131.200 224.000 C 131.200 223.780,130.840 223.600,130.400 223.600 C 129.960 223.600,129.600 223.420,129.600 223.200 C 129.600 222.980,129.330 222.800,129.000 222.800 C 128.670 222.800,128.400 222.620,128.400 222.400 C 128.400 222.180,128.130 222.000,127.800 222.000 C 127.470 222.000,127.200 221.820,127.200 221.600 C 127.200 221.380,126.840 221.200,126.400 221.200 C 125.960 221.200,125.600 221.020,125.600 220.800 C 125.600 220.580,125.330 220.400,125.000 220.400 C 124.670 220.400,124.400 220.220,124.400 220.000 C 124.400 219.780,124.040 219.600,123.600 219.600 C 123.160 219.600,122.800 219.420,122.800 219.200 C 122.800 218.980,122.530 218.800,122.200 218.800 C 121.870 218.800,121.600 218.620,121.600 218.400 C 121.600 218.180,121.240 218.000,120.800 218.000 C 120.360 218.000,120.000 217.820,120.000 217.600 C 120.000 217.380,119.730 217.200,119.400 217.200 C 119.070 217.200,118.800 217.020,118.800 216.800 C 118.800 216.580,118.440 216.400,118.000 216.400 C 117.560 216.400,117.200 216.220,117.200 216.000 C 117.200 215.780,116.930 215.600,116.600 215.600 C 116.270 215.600,116.000 215.420,116.000 215.200 C 116.000 214.980,115.640 214.800,115.200 214.800 C 114.760 214.800,114.400 214.620,114.400 214.400 C 114.400 214.180,114.130 214.000,113.800 214.000 C 113.470 214.000,113.200 213.820,113.200 213.600 C 113.200 213.380,112.840 213.200,112.400 213.200 C 111.960 213.200,111.600 213.020,111.600 212.800 C 111.600 212.580,111.330 212.400,111.000 212.400 C 110.670 212.400,110.400 212.220,110.400 212.000 C 110.400 211.780,110.040 211.600,109.600 211.600 C 109.160 211.600,108.800 211.420,108.800 211.200 C 108.800 210.980,108.530 210.800,108.200 210.800 C 107.870 210.800,107.600 210.620,107.600 210.400 C 107.600 210.180,107.240 210.000,106.800 210.000 C 106.360 210.000,106.000 209.820,106.000 209.600 C 106.000 209.380,105.730 209.200,105.400 209.200 C 105.070 209.200,104.800 209.020,104.800 208.800 C 104.800 208.580,104.440 208.400,104.000 208.400 C 103.560 208.400,103.200 208.220,103.200 208.000 C 103.200 207.780,102.930 207.600,102.600 207.600 C 102.270 207.600,102.000 207.420,102.000 207.200 C 102.000 206.980,101.730 206.800,101.400 206.800 C 101.070 206.800,100.800 206.620,100.800 206.400 C 100.800 206.180,100.440 206.000,100.000 206.000 C 99.560 206.000,99.200 205.854,99.200 205.675 C 99.200 205.496,98.570 205.102,97.800 204.800 C 97.030 204.498,96.400 204.104,96.400 203.925 C 96.400 203.746,96.145 203.600,95.833 203.600 C 95.522 203.600,95.186 203.375,95.088 203.100 C 94.492 201.432,94.186 204.417,94.079 212.920 C 93.957 222.729,94.159 224.400,95.468 224.400 C 95.760 224.400,96.000 224.580,96.000 224.800 C 96.000 225.020,96.360 225.200,96.800 225.200 C 97.240 225.200,97.600 225.346,97.600 225.525 C 97.600 225.704,98.230 226.098,99.000 226.400 C 99.770 226.702,100.400 227.096,100.400 227.275 C 100.400 227.454,100.670 227.600,101.000 227.600 C 101.330 227.600,101.600 227.780,101.600 228.000 C 101.600 228.220,101.960 228.400,102.400 228.400 C 102.840 228.400,103.200 228.546,103.200 228.725 C 103.200 228.904,103.830 229.298,104.600 229.600 C 105.370 229.902,106.000 230.296,106.000 230.475 C 106.000 230.654,106.270 230.800,106.600 230.800 C 106.930 230.800,107.200 230.980,107.200 231.200 C 107.200 231.420,107.560 231.600,108.000 231.600 C 108.440 231.600,108.800 231.780,108.800 232.000 C 108.800 232.220,109.070 232.400,109.400 232.400 C 109.730 232.400,110.000 232.580,110.000 232.800 C 110.000 233.020,110.270 233.200,110.600 233.200 C 110.930 233.200,111.200 233.380,111.200 233.600 C 111.200 233.820,111.560 234.000,112.000 234.000 C 112.440 234.000,112.800 234.146,112.800 234.325 C 112.800 234.504,113.430 234.898,114.200 235.200 C 114.970 235.502,115.600 235.896,115.600 236.075 C 115.600 236.254,115.870 236.400,116.200 236.400 C 116.530 236.400,116.800 236.580,116.800 236.800 C 116.800 237.020,117.160 237.200,117.600 237.200 C 118.040 237.200,118.400 237.380,118.400 237.600 C 118.400 237.820,118.670 238.000,119.000 238.000 C 119.330 238.000,119.600 238.146,119.600 238.325 C 119.600 238.504,120.230 238.898,121.000 239.200 C 121.770 239.502,122.400 239.862,122.400 240.000 C 122.400 240.138,123.030 240.498,123.800 240.800 C 124.570 241.102,125.200 241.496,125.200 241.675 C 125.200 241.854,125.470 242.000,125.800 242.000 C 126.130 242.000,126.400 242.180,126.400 242.400 C 126.400 242.620,126.760 242.800,127.200 242.800 C 127.640 242.800,128.000 242.980,128.000 243.200 C 128.000 243.420,128.270 243.600,128.600 243.600 C 128.930 243.600,129.200 243.780,129.200 244.000 C 129.200 244.220,129.560 244.400,130.000 244.400 C 130.440 244.400,130.800 244.580,130.800 244.800 C 130.800 245.020,131.070 245.200,131.400 245.200 C 131.730 245.200,132.000 245.346,132.000 245.525 C 132.000 245.704,132.630 246.098,133.400 246.400 C 134.170 246.702,134.800 247.096,134.800 247.275 C 134.800 247.454,135.070 247.600,135.400 247.600 C 135.730 247.600,136.000 247.780,136.000 248.000 C 136.000 248.220,136.360 248.400,136.800 248.400 C 137.240 248.400,137.600 248.580,137.600 248.800 C 137.600 249.020,137.870 249.200,138.200 249.200 C 138.530 249.200,138.800 249.380,138.800 249.600 C 138.800 249.820,139.160 250.000,139.600 250.000 C 140.040 250.000,140.400 250.180,140.400 250.400 C 140.400 250.620,140.670 250.800,141.000 250.800 C 141.330 250.800,141.600 250.984,141.600 251.210 C 141.600 251.477,143.857 251.582,148.100 251.510 L 154.600 251.400 154.800 234.428 C 154.987 218.540,155.043 217.499,155.671 218.128 C 156.041 218.498,156.626 218.800,156.971 218.800 C 157.317 218.800,157.600 218.946,157.600 219.125 C 157.600 219.304,158.230 219.698,159.000 220.000 C 159.770 220.302,160.400 220.696,160.400 220.875 C 160.400 221.054,160.670 221.200,161.000 221.200 C 161.330 221.200,161.600 221.380,161.600 221.600 C 161.600 221.820,161.960 222.000,162.400 222.000 C 162.840 222.000,163.200 222.146,163.200 222.325 C 163.200 222.504,163.830 222.898,164.600 223.200 C 165.370 223.502,166.000 223.896,166.000 224.075 C 166.000 224.254,166.270 224.400,166.600 224.400 C 166.930 224.400,167.200 224.580,167.200 224.800 C 167.200 225.020,167.560 225.200,168.000 225.200 C 168.440 225.200,168.800 225.380,168.800 225.600 C 168.800 225.820,169.070 226.000,169.400 226.000 C 169.730 226.000,170.000 226.180,170.000 226.400 C 170.000 226.620,170.360 226.800,170.800 226.800 C 171.240 226.800,171.600 226.980,171.600 227.200 C 171.600 227.420,171.855 227.600,172.167 227.600 C 172.478 227.600,172.801 227.804,172.884 228.053 C 172.976 228.327,173.383 228.396,173.918 228.226 C 175.410 227.752,175.254 207.600,173.757 207.600 C 173.451 207.600,173.200 207.420,173.200 207.200 C 173.200 206.980,172.930 206.800,172.600 206.800 C 172.270 206.800,172.000 206.620,172.000 206.400 C 172.000 206.180,171.640 206.000,171.200 206.000 C 170.760 206.000,170.400 205.854,170.400 205.675 C 170.400 205.496,169.770 205.102,169.000 204.800 C 168.230 204.498,167.600 204.104,167.600 203.925 C 167.600 203.746,167.330 203.600,167.000 203.600 C 166.670 203.600,166.400 203.420,166.400 203.200 C 166.400 202.980,166.040 202.800,165.600 202.800 C 165.160 202.800,164.800 202.620,164.800 202.400 C 164.800 202.180,164.530 202.000,164.200 202.000 C 163.870 202.000,163.600 201.820,163.600 201.600 C 163.600 201.380,163.330 201.200,163.000 201.200 C 162.670 201.200,162.400 201.020,162.400 200.800 C 162.400 200.580,162.040 200.400,161.600 200.400 C 161.160 200.400,160.800 200.254,160.800 200.075 C 160.800 199.896,160.170 199.502,159.400 199.200 C 158.630 198.898,158.000 198.504,158.000 198.325 C 158.000 198.146,157.730 198.000,157.400 198.000 C 157.070 198.000,156.800 197.833,156.800 197.628 C 156.800 197.423,156.395 197.198,155.900 197.128 L 155.000 197.000 154.800 170.800 L 154.600 144.600 144.300 144.493 L 134.000 144.386 134.000 184.793 M207.252 235.449 C 206.775 235.989,206.822 236.051,207.621 235.934 C 208.125 235.860,208.611 235.575,208.702 235.300 C 208.933 234.599,207.912 234.704,207.252 235.449 M215.600 235.213 C 215.600 235.439,215.863 235.726,216.185 235.850 C 216.506 235.973,216.879 236.417,217.012 236.837 C 217.267 237.641,218.000 237.896,218.000 237.182 C 218.000 236.753,216.211 234.800,215.818 234.800 C 215.698 234.800,215.600 234.986,215.600 235.213 M224.100 235.398 C 223.825 235.711,223.600 236.154,223.600 236.383 C 223.600 236.612,223.420 236.800,223.200 236.800 C 222.491 236.800,222.682 249.004,223.400 249.600 C 223.929 250.039,224.000 249.275,224.000 243.096 C 224.000 236.318,224.027 236.086,224.840 235.874 C 225.303 235.753,225.562 235.462,225.417 235.227 C 225.068 234.662,224.707 234.709,224.100 235.398 M232.800 235.138 C 232.800 235.525,234.128 236.800,234.531 236.800 C 234.999 236.800,234.822 235.965,234.229 235.371 C 233.598 234.741,232.800 234.610,232.800 235.138 M244.800 241.202 C 245.066 249.707,245.764 249.707,245.910 241.201 C 246.011 235.296,245.965 234.800,245.310 234.799 C 244.651 234.799,244.614 235.261,244.800 241.202 M254.800 242.218 C 254.800 249.947,255.220 251.600,257.182 251.600 C 257.908 251.600,257.634 250.734,256.843 250.527 C 255.545 250.188,254.843 235.572,256.100 235.065 C 256.375 234.954,256.195 234.849,255.700 234.832 L 254.800 234.800 254.800 242.218 M259.520 240.999 C 259.678 249.202,260.400 249.202,260.400 241.000 C 260.400 236.307,260.278 234.800,259.900 234.799 C 259.516 234.799,259.428 236.242,259.520 240.999 M261.689 235.136 C 261.303 235.381,261.205 236.944,261.289 241.531 C 261.439 249.750,262.139 249.542,262.400 241.202 C 262.510 237.680,262.510 234.802,262.400 234.805 C 262.290 234.809,261.970 234.958,261.689 235.136 M287.679 243.300 C 287.760 251.900,287.908 250.907,288.097 240.499 C 288.153 237.364,288.065 234.799,287.900 234.799 C 287.735 234.800,287.636 238.625,287.679 243.300 M292.170 243.200 C 292.170 247.930,292.228 249.865,292.298 247.500 C 292.369 245.135,292.369 241.265,292.298 238.900 C 292.228 236.535,292.170 238.470,292.170 243.200 M298.900 235.810 C 297.964 236.810,297.731 237.600,298.373 237.600 C 298.578 237.600,298.855 237.257,298.988 236.837 C 299.121 236.417,299.494 235.973,299.815 235.850 C 300.412 235.621,300.645 234.780,300.100 234.824 C 299.935 234.838,299.395 235.281,298.900 235.810 M307.607 235.100 C 307.618 235.584,309.467 237.199,309.720 236.946 C 309.848 236.819,309.521 236.284,308.994 235.758 C 308.009 234.772,307.595 234.576,307.607 235.100 M315.770 243.200 C 315.770 247.930,315.828 249.865,315.898 247.500 C 315.969 245.135,315.969 241.265,315.898 238.900 C 315.828 236.535,315.770 238.470,315.770 243.200 M319.200 234.951 C 319.200 235.034,319.470 235.326,319.800 235.600 C 320.291 236.008,320.400 235.980,320.400 235.449 C 320.400 235.092,320.130 234.800,319.800 234.800 C 319.470 234.800,319.200 234.868,319.200 234.951 M333.652 235.449 C 333.175 235.989,333.222 236.051,334.021 235.934 C 334.525 235.860,335.011 235.575,335.102 235.300 C 335.333 234.599,334.312 234.704,333.652 235.449 M342.000 235.213 C 342.000 235.439,342.263 235.726,342.585 235.850 C 342.906 235.973,343.279 236.417,343.412 236.837 C 343.667 237.641,344.400 237.896,344.400 237.182 C 344.400 236.753,342.611 234.800,342.218 234.800 C 342.098 234.800,342.000 234.986,342.000 235.213 M206.480 236.880 C 205.766 237.594,205.857 242.315,206.600 243.057 C 207.133 243.590,207.200 243.254,207.200 240.029 C 207.200 238.033,207.146 236.400,207.080 236.400 C 207.014 236.400,206.744 236.616,206.480 236.880 M320.092 236.875 C 320.339 237.617,321.200 237.740,321.200 237.033 C 321.200 236.685,320.915 236.400,320.567 236.400 C 320.218 236.400,320.005 236.614,320.092 236.875 M332.880 236.880 C 332.166 237.594,332.257 242.315,333.000 243.057 C 333.533 243.590,333.600 243.254,333.600 240.029 C 333.600 238.033,333.546 236.400,333.480 236.400 C 333.414 236.400,333.144 236.616,332.880 236.880 M234.559 243.200 C 234.559 246.390,234.621 247.695,234.697 246.100 C 234.773 244.505,234.773 241.895,234.697 240.300 C 234.621 238.705,234.559 240.010,234.559 243.200 M321.263 238.353 C 320.868 238.603,320.835 238.892,321.137 239.446 C 321.363 239.861,321.783 240.785,322.071 241.500 C 322.360 242.215,322.714 242.800,322.860 242.800 C 323.188 242.800,322.809 241.160,322.343 240.560 C 322.155 240.317,321.961 239.642,321.913 239.060 C 321.865 238.477,321.820 238.003,321.813 238.006 C 321.806 238.009,321.558 238.165,321.263 238.353 M229.526 238.709 C 229.921 238.987,230.021 240.189,229.926 243.521 C 229.857 245.964,229.941 247.821,230.114 247.647 C 230.730 247.028,230.261 238.682,229.600 238.502 C 229.130 238.374,229.114 238.419,229.526 238.709 M274.289 238.687 C 274.631 238.929,274.817 240.967,274.906 245.417 L 275.032 251.800 275.016 245.233 C 275.003 239.744,274.901 238.639,274.400 238.502 C 273.967 238.385,273.936 238.436,274.289 238.687 M279.377 238.917 C 279.268 239.201,279.233 242.216,279.300 245.617 L 279.422 251.800 279.511 245.333 C 279.576 240.603,279.734 238.812,280.100 238.665 C 280.492 238.507,280.489 238.456,280.087 238.432 C 279.806 238.414,279.486 238.633,279.377 238.917 M304.487 242.964 C 304.635 249.058,305.400 249.199,305.400 243.133 C 305.400 239.855,305.264 238.621,304.887 238.496 C 304.485 238.362,304.398 239.329,304.487 242.964 M212.400 239.600 C 212.400 240.333,212.642 240.394,215.300 240.326 C 217.969 240.258,218.025 240.240,216.002 240.102 C 214.635 240.008,213.683 239.734,213.482 239.376 C 213.016 238.542,212.400 238.670,212.400 239.600 M302.800 243.200 C 302.800 245.867,302.958 247.600,303.200 247.600 C 303.442 247.600,303.600 245.867,303.600 243.200 C 303.600 240.533,303.442 238.800,303.200 238.800 C 302.958 238.800,302.800 240.533,302.800 243.200 M338.800 239.600 C 338.800 240.333,339.042 240.394,341.700 240.326 C 344.369 240.258,344.425 240.240,342.402 240.102 C 341.035 240.008,340.083 239.734,339.882 239.376 C 339.416 238.542,338.800 238.670,338.800 239.600 M214.800 241.592 C 214.800 241.808,215.244 242.096,215.786 242.232 C 216.328 242.368,216.880 242.822,217.013 243.240 C 217.145 243.658,217.422 244.000,217.627 244.000 C 218.294 244.000,218.022 243.185,217.018 242.182 C 216.029 241.192,214.800 240.866,214.800 241.592 M341.200 241.592 C 341.200 241.808,341.644 242.096,342.186 242.232 C 342.728 242.368,343.280 242.822,343.413 243.240 C 343.545 243.658,343.822 244.000,344.027 244.000 C 344.694 244.000,344.422 243.185,343.418 242.182 C 342.429 241.192,341.200 240.866,341.200 241.592 M319.679 247.500 C 319.755 251.188,319.767 251.238,319.899 248.418 C 319.975 246.778,320.225 245.211,320.454 244.935 C 320.894 244.405,320.607 243.600,319.976 243.600 C 319.762 243.600,319.634 245.273,319.679 247.500 M207.310 244.568 C 208.062 245.319,209.337 245.413,209.102 244.700 C 209.012 244.425,208.430 244.140,207.808 244.068 C 206.778 243.947,206.734 243.991,207.310 244.568 M333.710 244.568 C 334.462 245.319,335.737 245.413,335.502 244.700 C 335.412 244.425,334.830 244.140,334.208 244.068 C 333.178 243.947,333.134 243.991,333.710 244.568 M212.656 245.078 C 212.123 245.610,212.395 247.600,213.000 247.600 C 213.397 247.600,213.600 247.203,213.600 246.424 C 213.600 245.249,213.140 244.593,212.656 245.078 M338.800 246.400 C 338.800 247.200,339.000 247.600,339.400 247.600 C 339.800 247.600,340.000 247.200,340.000 246.400 C 340.000 245.600,339.800 245.200,339.400 245.200 C 339.000 245.200,338.800 245.600,338.800 246.400 M320.400 246.167 C 320.400 246.515,320.685 246.800,321.033 246.800 C 321.740 246.800,321.617 245.939,320.875 245.692 C 320.614 245.605,320.400 245.818,320.400 246.167 M206.500 246.265 C 205.927 246.496,205.809 248.800,206.371 248.800 C 206.575 248.800,206.824 249.115,206.924 249.500 C 207.025 249.885,207.128 249.354,207.154 248.320 L 207.200 246.440 209.500 246.296 L 211.800 246.151 209.400 246.107 C 208.080 246.083,206.775 246.154,206.500 246.265 M332.900 246.265 C 332.309 246.503,332.218 248.800,332.800 248.800 C 333.020 248.800,333.200 249.173,333.200 249.629 C 333.200 250.514,334.066 251.600,334.771 251.600 C 335.535 251.600,335.225 250.500,334.400 250.284 C 333.748 250.114,333.600 249.738,333.600 248.257 L 333.600 246.440 335.900 246.296 L 338.200 246.151 335.800 246.107 C 334.480 246.083,333.175 246.154,332.900 246.265 M321.200 247.708 C 321.200 248.042,321.470 248.418,321.800 248.545 C 322.130 248.671,322.400 248.623,322.400 248.436 C 322.400 248.250,322.130 247.874,321.800 247.600 C 321.312 247.195,321.200 247.215,321.200 247.708 M249.748 248.500 C 249.881 248.995,249.992 249.906,249.995 250.524 C 249.998 251.170,250.170 251.542,250.400 251.400 C 251.112 250.960,250.894 247.600,250.153 247.600 C 249.678 247.600,249.571 247.838,249.748 248.500 M298.000 249.218 C 298.000 249.448,298.442 250.078,298.982 250.618 C 300.020 251.657,300.800 251.890,300.800 251.163 C 300.800 250.922,300.457 250.635,300.037 250.526 C 299.617 250.416,299.184 249.983,299.074 249.563 C 298.866 248.767,298.000 248.489,298.000 249.218 M216.950 249.785 C 216.827 250.106,216.383 250.479,215.963 250.612 C 215.159 250.867,214.904 251.600,215.618 251.600 C 216.047 251.600,218.000 249.811,218.000 249.418 C 218.000 248.943,217.161 249.236,216.950 249.785 M308.446 250.219 C 307.921 250.773,307.595 251.329,307.722 251.455 C 307.947 251.681,310.000 249.846,310.000 249.418 C 310.000 248.933,309.347 249.269,308.446 250.219 M322.194 249.610 C 322.031 249.874,322.146 250.244,322.449 250.432 C 323.114 250.845,323.473 250.113,322.890 249.530 C 322.624 249.264,322.391 249.290,322.194 249.610 M343.350 249.785 C 343.227 250.106,342.765 250.484,342.323 250.625 C 341.775 250.798,341.650 251.010,341.929 251.289 C 342.300 251.660,344.400 250.070,344.400 249.418 C 344.400 248.943,343.561 249.236,343.350 249.785 M233.300 250.270 C 232.253 251.000,232.130 251.600,233.029 251.600 C 233.747 251.600,234.800 250.666,234.800 250.029 C 234.800 249.451,234.376 249.519,233.300 250.270 M265.206 250.382 C 264.658 250.802,264.369 251.292,264.561 251.473 C 264.753 251.653,264.990 251.575,265.088 251.300 C 265.186 251.025,265.612 250.800,266.033 250.800 C 266.455 250.800,266.800 250.530,266.800 250.200 C 266.800 249.410,266.412 249.455,265.206 250.382 M207.343 251.000 C 207.673 251.330,208.136 251.600,208.371 251.600 C 208.607 251.600,208.800 251.330,208.800 251.000 C 208.800 250.622,208.419 250.400,207.771 250.400 C 206.857 250.400,206.810 250.467,207.343 251.000 M224.107 250.964 C 224.864 251.721,225.735 251.806,225.502 251.100 C 225.411 250.825,224.917 250.539,224.404 250.464 C 223.550 250.339,223.525 250.382,224.107 250.964 " stroke="none" fill="#145c84" fill-rule="evenodd"></path><path id="path3" d="M51.600 144.219 C 51.600 144.757,52.460 144.822,58.196 144.719 C 63.599 144.621,64.832 144.703,65.009 145.167 C 65.167 145.580,65.346 145.614,65.667 145.293 C 65.989 144.971,65.939 144.682,65.483 144.226 C 64.553 143.296,51.600 143.289,51.600 144.219 M134.000 143.993 C 134.000 144.238,137.890 144.427,144.300 144.493 L 154.600 144.600 154.703 170.453 C 154.808 196.941,154.903 198.512,156.310 197.002 C 156.469 196.831,156.375 196.610,156.100 196.512 C 155.707 196.371,155.600 190.698,155.600 169.967 L 155.600 143.600 144.800 143.600 C 137.990 143.600,134.000 143.745,134.000 143.993 M66.400 145.560 C 66.400 145.905,69.098 147.729,69.680 147.777 C 69.834 147.790,70.185 148.025,70.460 148.300 C 71.073 148.913,71.600 148.946,71.600 148.371 C 71.600 147.734,70.547 146.800,69.829 146.800 C 69.483 146.800,69.200 146.620,69.200 146.400 C 69.200 146.180,68.840 146.000,68.400 146.000 C 67.960 146.000,67.600 145.820,67.600 145.600 C 67.600 145.380,67.330 145.200,67.000 145.200 C 66.670 145.200,66.400 145.362,66.400 145.560 M72.000 148.729 C 72.000 149.205,75.214 151.238,75.595 151.003 C 75.772 150.894,76.019 151.074,76.146 151.402 C 76.408 152.087,77.200 152.214,77.200 151.571 C 77.200 150.934,76.147 150.000,75.429 150.000 C 75.083 150.000,74.800 149.820,74.800 149.600 C 74.800 149.380,74.440 149.200,74.000 149.200 C 73.560 149.200,73.200 149.020,73.200 148.800 C 73.200 148.580,72.930 148.400,72.600 148.400 C 72.270 148.400,72.000 148.548,72.000 148.729 M197.200 150.395 C 197.200 150.647,202.827 150.829,212.700 150.895 L 228.200 151.000 228.200 158.100 C 228.200 163.514,228.319 165.201,228.700 165.200 C 229.082 165.200,229.200 163.413,229.200 157.600 L 229.200 150.000 213.200 150.000 C 202.927 150.000,197.200 150.141,197.200 150.395 M243.300 150.598 C 242.657 151.329,242.558 222.000,243.200 222.000 C 243.464 222.000,243.600 209.865,243.600 186.395 L 243.600 150.790 257.900 150.895 L 272.200 151.000 272.309 158.100 C 272.375 162.380,272.574 165.200,272.809 165.200 C 273.487 165.200,273.315 151.257,272.629 150.571 C 271.782 149.725,244.046 149.751,243.300 150.598 M299.600 150.400 C 299.600 150.620,300.230 150.800,301.000 150.800 C 301.770 150.800,302.400 150.620,302.400 150.400 C 302.400 150.180,301.770 150.000,301.000 150.000 C 300.230 150.000,299.600 150.180,299.600 150.400 M309.200 150.400 C 309.200 150.620,309.931 150.800,310.824 150.800 C 311.804 150.800,312.349 150.642,312.200 150.400 C 312.064 150.180,311.333 150.000,310.576 150.000 C 309.819 150.000,309.200 150.180,309.200 150.400 M338.800 150.800 C 338.800 151.644,339.382 151.876,339.800 151.200 C 339.950 150.958,342.804 150.800,347.024 150.800 C 351.408 150.800,354.000 150.651,354.000 150.400 C 354.000 150.147,351.200 150.000,346.400 150.000 C 339.067 150.000,338.800 150.028,338.800 150.800 M359.677 150.430 C 359.755 150.667,359.950 150.846,360.110 150.830 C 360.270 150.814,363.640 150.800,367.600 150.800 C 372.133 150.800,374.800 150.652,374.800 150.400 C 374.800 150.147,371.989 150.000,367.167 150.000 C 361.901 150.000,359.578 150.133,359.677 150.430 M297.200 151.200 C 297.200 151.420,297.560 151.600,298.000 151.600 C 298.440 151.600,298.800 151.420,298.800 151.200 C 298.800 150.980,298.440 150.800,298.000 150.800 C 297.560 150.800,297.200 150.980,297.200 151.200 M312.800 151.200 C 312.800 151.420,313.250 151.600,313.800 151.600 C 314.350 151.600,314.800 151.736,314.800 151.902 C 314.800 152.069,315.385 152.456,316.100 152.764 C 316.815 153.071,318.162 154.105,319.093 155.061 C 320.865 156.881,321.200 157.087,321.200 156.360 C 321.200 155.750,317.594 152.400,316.936 152.400 C 316.641 152.400,316.400 152.220,316.400 152.000 C 316.400 151.780,316.040 151.600,315.600 151.600 C 315.160 151.600,314.800 151.420,314.800 151.200 C 314.800 150.980,314.350 150.800,313.800 150.800 C 313.250 150.800,312.800 150.980,312.800 151.200 M77.600 151.960 C 77.600 152.287,79.120 153.338,81.493 154.651 C 82.026 154.946,82.480 154.994,82.619 154.770 C 82.923 154.277,81.832 153.200,81.029 153.200 C 80.683 153.200,80.400 153.020,80.400 152.800 C 80.400 152.580,80.040 152.400,79.600 152.400 C 79.160 152.400,78.800 152.220,78.800 152.000 C 78.800 151.780,78.530 151.600,78.200 151.600 C 77.870 151.600,77.600 151.762,77.600 151.960 M295.600 152.000 C 295.600 152.220,295.324 152.400,294.987 152.400 C 294.292 152.400,291.600 154.946,291.600 155.603 C 291.600 155.840,291.240 156.420,290.800 156.892 C 289.960 157.793,289.717 159.200,290.400 159.200 C 290.620 159.200,290.800 158.840,290.800 158.400 C 290.800 157.960,290.980 157.600,291.200 157.600 C 291.420 157.600,291.600 157.330,291.600 157.000 C 291.600 156.670,291.780 156.400,292.000 156.400 C 292.220 156.400,292.400 156.160,292.400 155.866 C 292.400 155.239,294.140 153.641,295.703 152.832 C 296.901 152.213,297.148 151.600,296.200 151.600 C 295.870 151.600,295.600 151.780,295.600 152.000 M354.000 164.800 C 354.000 171.033,354.101 176.032,354.225 175.909 C 354.494 175.639,354.458 153.925,354.188 153.655 C 354.085 153.551,354.000 158.567,354.000 164.800 M83.200 155.160 C 83.200 155.460,85.739 157.239,86.400 157.403 C 86.712 157.480,89.148 158.906,90.646 159.888 C 91.391 160.376,92.000 160.697,92.000 160.600 C 92.000 160.503,92.609 160.824,93.354 161.312 C 95.780 162.902,97.391 163.744,97.854 163.664 C 98.104 163.621,98.414 163.859,98.542 164.193 C 98.808 164.885,99.600 165.019,99.600 164.371 C 99.600 163.734,98.547 162.800,97.829 162.800 C 97.483 162.800,97.200 162.620,97.200 162.400 C 97.200 162.180,96.840 162.000,96.400 162.000 C 95.960 162.000,95.600 161.820,95.600 161.600 C 95.600 161.380,95.280 161.200,94.888 161.200 C 94.497 161.200,93.917 160.840,93.600 160.400 C 93.283 159.960,92.703 159.600,92.312 159.600 C 91.920 159.600,91.600 159.420,91.600 159.200 C 91.600 158.980,91.240 158.800,90.800 158.800 C 90.360 158.800,90.000 158.599,90.000 158.353 C 90.000 158.104,89.647 157.999,89.200 158.116 C 88.760 158.231,88.400 158.149,88.400 157.934 C 88.400 157.328,87.328 156.400,86.629 156.400 C 86.283 156.400,86.000 156.220,86.000 156.000 C 86.000 155.780,85.640 155.600,85.200 155.600 C 84.760 155.600,84.400 155.420,84.400 155.200 C 84.400 154.980,84.130 154.800,83.800 154.800 C 83.470 154.800,83.200 154.962,83.200 155.160 M374.893 157.200 C 374.893 157.970,374.975 158.285,375.076 157.900 C 375.176 157.515,375.176 156.885,375.076 156.500 C 374.975 156.115,374.893 156.430,374.893 157.200 M321.200 157.800 C 321.200 158.130,321.380 158.400,321.600 158.400 C 321.820 158.400,322.000 158.130,322.000 157.800 C 322.000 157.470,321.820 157.200,321.600 157.200 C 321.380 157.200,321.200 157.470,321.200 157.800 M322.000 159.624 C 322.000 160.077,322.180 160.336,322.400 160.200 C 322.620 160.064,322.800 159.693,322.800 159.376 C 322.800 159.059,322.620 158.800,322.400 158.800 C 322.180 158.800,322.000 159.171,322.000 159.624 M289.200 160.400 C 289.200 160.840,289.380 161.200,289.600 161.200 C 289.820 161.200,290.000 160.840,290.000 160.400 C 290.000 159.960,289.820 159.600,289.600 159.600 C 289.380 159.600,289.200 159.960,289.200 160.400 M322.800 162.000 C 322.800 162.880,322.980 163.600,323.200 163.600 C 323.420 163.600,323.600 162.880,323.600 162.000 C 323.600 161.120,323.420 160.400,323.200 160.400 C 322.980 160.400,322.800 161.120,322.800 162.000 M374.990 189.200 C 374.990 204.930,375.039 211.365,375.100 203.500 C 375.160 195.635,375.160 182.765,375.100 174.900 C 375.039 167.035,374.990 173.470,374.990 189.200 M196.893 162.800 C 196.893 163.570,196.975 163.885,197.076 163.500 C 197.176 163.115,197.176 162.485,197.076 162.100 C 196.975 161.715,196.893 162.030,196.893 162.800 M288.400 163.200 C 288.400 163.860,288.580 164.400,288.800 164.400 C 289.020 164.400,289.200 163.860,289.200 163.200 C 289.200 162.540,289.020 162.000,288.800 162.000 C 288.580 162.000,288.400 162.540,288.400 163.200 M304.800 164.000 C 304.800 164.220,305.248 164.400,305.797 164.400 C 306.360 164.400,307.010 164.748,307.293 165.200 C 307.568 165.640,307.929 166.000,308.096 166.000 C 308.654 166.000,308.409 165.209,307.600 164.400 C 306.774 163.574,304.800 163.292,304.800 164.000 M100.098 164.900 C 100.189 165.175,100.635 165.587,101.089 165.816 C 101.543 166.044,102.188 166.458,102.522 166.735 C 102.935 167.078,103.212 167.104,103.390 166.816 C 103.717 166.286,102.668 165.200,101.829 165.200 C 101.483 165.200,101.200 165.020,101.200 164.800 C 101.200 164.580,100.915 164.400,100.567 164.400 C 100.218 164.400,100.008 164.625,100.098 164.900 M205.105 193.600 C 205.173 211.942,205.350 222.000,205.605 222.000 C 205.861 222.000,206.000 212.014,206.000 193.600 C 206.000 171.147,205.895 165.200,205.500 165.200 C 205.104 165.200,205.022 171.090,205.105 193.600 M220.400 193.600 C 220.400 212.267,220.537 222.000,220.800 222.000 C 221.063 222.000,221.200 212.267,221.200 193.600 C 221.200 174.933,221.063 165.200,220.800 165.200 C 220.537 165.200,220.400 174.933,220.400 193.600 M258.950 169.400 C 258.951 171.820,259.016 172.758,259.096 171.485 C 259.176 170.212,259.175 168.232,259.094 167.085 C 259.014 165.938,258.949 166.980,258.950 169.400 M287.867 166.267 C 287.417 166.716,287.549 208.400,288.000 208.400 C 288.262 208.400,288.400 201.067,288.400 187.200 C 288.400 175.540,288.340 166.000,288.267 166.000 C 288.193 166.000,288.013 166.120,287.867 166.267 M302.800 186.400 C 302.800 199.733,302.939 206.800,303.200 206.800 C 303.420 206.800,303.600 207.030,303.600 207.311 C 303.600 208.016,305.059 209.203,305.905 209.187 C 307.439 209.157,309.515 206.000,308.000 206.000 C 307.780 206.000,307.600 206.283,307.600 206.629 C 307.600 208.397,305.739 208.854,304.472 207.397 C 303.601 206.395,303.600 206.377,303.600 186.197 C 303.600 172.999,303.461 166.000,303.200 166.000 C 302.939 166.000,302.800 173.067,302.800 186.400 M31.500 166.680 C 30.856 166.844,30.800 167.678,30.800 177.048 L 30.800 187.236 31.782 188.218 C 32.322 188.758,33.042 189.200,33.382 189.200 C 33.722 189.200,34.000 189.380,34.000 189.600 C 34.000 189.820,34.236 190.000,34.525 190.000 C 34.813 190.000,35.436 190.360,35.908 190.800 C 36.380 191.240,37.044 191.600,37.383 191.600 C 37.722 191.600,38.000 191.780,38.000 192.000 C 38.000 192.220,38.360 192.400,38.800 192.400 C 39.240 192.400,39.600 192.580,39.600 192.800 C 39.600 193.020,39.836 193.200,40.125 193.200 C 40.413 193.200,41.036 193.560,41.508 194.000 C 41.980 194.440,42.644 194.800,42.983 194.800 C 43.322 194.800,43.600 194.980,43.600 195.200 C 43.600 195.420,43.960 195.600,44.400 195.600 C 44.840 195.600,45.200 195.780,45.200 196.000 C 45.200 196.220,45.436 196.400,45.725 196.400 C 46.013 196.400,46.636 196.760,47.108 197.200 C 47.580 197.640,48.244 198.000,48.583 198.000 C 48.922 198.000,49.200 198.180,49.200 198.400 C 49.200 198.620,49.448 198.800,49.751 198.800 C 50.054 198.800,50.533 199.079,50.816 199.419 C 51.213 199.897,51.400 199.924,51.638 199.538 C 52.053 198.868,51.654 198.294,50.960 198.560 C 50.652 198.678,50.400 198.594,50.400 198.374 C 50.400 197.847,47.547 196.172,46.901 196.320 C 46.626 196.383,46.400 196.265,46.400 196.057 C 46.400 195.710,43.662 193.887,43.200 193.926 C 43.090 193.935,42.696 193.668,42.325 193.332 C 41.954 192.996,41.459 192.840,41.225 192.984 C 40.991 193.129,40.800 193.074,40.800 192.863 C 40.800 192.528,38.530 190.915,37.400 190.447 C 37.180 190.356,36.190 189.728,35.200 189.053 C 34.210 188.377,33.310 187.842,33.200 187.865 C 31.710 188.168,31.557 187.086,31.680 177.081 C 31.799 167.333,31.952 166.107,32.904 167.257 C 33.647 168.155,35.731 169.390,36.300 169.270 C 36.575 169.212,36.800 169.335,36.800 169.543 C 36.800 169.890,39.538 171.713,40.000 171.674 C 40.110 171.665,40.497 171.926,40.860 172.255 C 41.305 172.657,41.607 172.712,41.786 172.423 C 42.117 171.888,41.073 170.800,40.229 170.800 C 39.883 170.800,39.600 170.620,39.600 170.400 C 39.600 170.180,39.240 170.000,38.800 170.000 C 38.360 170.000,38.000 169.841,38.000 169.647 C 38.000 169.452,37.685 169.193,37.300 169.071 C 36.526 168.826,34.314 167.541,34.000 167.154 C 33.677 166.756,32.257 166.487,31.500 166.680 M104.000 167.160 C 104.000 167.595,106.856 169.388,107.345 169.260 C 107.535 169.211,107.912 169.474,108.184 169.846 C 108.533 170.323,108.762 170.385,108.964 170.058 C 109.312 169.494,108.298 168.400,107.429 168.400 C 107.083 168.400,106.800 168.220,106.800 168.000 C 106.800 167.780,106.440 167.600,106.000 167.600 C 105.560 167.600,105.200 167.420,105.200 167.200 C 105.200 166.980,104.930 166.800,104.600 166.800 C 104.270 166.800,104.000 166.962,104.000 167.160 M308.400 173.776 C 308.400 176.929,308.565 179.255,308.800 179.400 C 309.059 179.560,309.200 177.671,309.200 174.024 C 309.200 170.541,309.048 168.400,308.800 168.400 C 308.553 168.400,308.400 170.459,308.400 173.776 M72.275 169.858 C 72.124 170.010,72.000 188.373,72.000 210.667 L 72.000 251.200 61.800 251.200 C 53.000 251.200,51.600 251.282,51.600 251.800 C 51.600 252.319,53.067 252.400,62.400 252.400 L 73.200 252.400 73.200 212.000 C 73.200 171.867,73.205 171.600,74.000 171.600 C 74.440 171.600,74.800 171.780,74.800 172.000 C 74.800 172.220,75.036 172.400,75.325 172.400 C 75.613 172.400,76.236 172.760,76.708 173.200 C 77.180 173.640,77.844 174.000,78.183 174.000 C 78.522 174.000,78.800 174.180,78.800 174.400 C 78.800 174.620,79.070 174.800,79.400 174.800 C 79.730 174.800,80.000 174.648,80.000 174.462 C 80.000 173.986,78.579 172.754,78.325 173.009 C 78.209 173.125,77.895 172.956,77.628 172.633 C 77.360 172.311,76.885 172.146,76.571 172.267 C 76.257 172.387,76.000 172.304,76.000 172.082 C 76.000 171.860,75.325 171.259,74.500 170.746 C 72.521 169.515,72.591 169.543,72.275 169.858 M109.600 170.409 C 109.600 170.633,110.093 171.038,110.695 171.309 C 113.209 172.437,113.175 172.287,113.309 182.893 L 113.433 192.600 113.416 182.371 C 113.399 171.537,113.272 170.800,111.429 170.800 C 111.083 170.800,110.800 170.620,110.800 170.400 C 110.800 170.180,110.530 170.000,110.200 170.000 C 109.870 170.000,109.600 170.184,109.600 170.409 M323.744 175.600 C 323.744 177.690,323.812 178.545,323.894 177.500 C 323.976 176.455,323.976 174.745,323.894 173.700 C 323.812 172.655,323.744 173.510,323.744 175.600 M42.400 172.760 C 42.400 173.112,43.961 174.161,46.800 175.719 C 47.570 176.142,48.485 176.738,48.832 177.045 C 49.180 177.351,49.599 177.468,49.762 177.304 C 49.926 177.141,50.235 177.320,50.450 177.703 C 50.881 178.474,51.600 178.642,51.600 177.971 C 51.600 177.334,50.547 176.400,49.829 176.400 C 49.483 176.400,49.200 176.220,49.200 176.000 C 49.200 175.780,48.880 175.600,48.488 175.600 C 48.097 175.600,47.517 175.240,47.200 174.800 C 46.883 174.360,46.303 174.000,45.912 174.000 C 45.520 174.000,45.200 173.820,45.200 173.600 C 45.200 173.380,44.840 173.200,44.400 173.200 C 43.960 173.200,43.600 173.020,43.600 172.800 C 43.600 172.580,43.330 172.400,43.000 172.400 C 42.670 172.400,42.400 172.562,42.400 172.760 M80.400 174.829 C 80.400 175.466,81.453 176.400,82.171 176.400 C 82.517 176.400,82.800 176.580,82.800 176.800 C 82.800 177.020,83.160 177.200,83.600 177.200 C 84.040 177.200,84.400 177.380,84.400 177.600 C 84.400 177.820,84.670 178.000,85.000 178.000 C 85.330 178.000,85.600 177.838,85.600 177.640 C 85.600 177.252,82.773 175.408,82.338 175.512 C 82.194 175.546,81.857 175.310,81.589 174.987 C 81.018 174.299,80.400 174.217,80.400 174.829 M86.181 178.030 C 85.877 178.523,86.968 179.600,87.771 179.600 C 88.117 179.600,88.400 179.780,88.400 180.000 C 88.400 180.220,88.678 180.400,89.017 180.400 C 89.356 180.400,90.020 180.760,90.492 181.200 C 90.964 181.640,91.587 182.000,91.875 182.000 C 92.164 182.000,92.400 182.180,92.400 182.400 C 92.400 182.620,92.760 182.800,93.200 182.800 C 93.640 182.800,94.000 182.980,94.000 183.200 C 94.000 183.420,94.270 183.600,94.600 183.600 C 95.632 183.600,95.261 182.947,93.609 181.853 C 92.733 181.274,91.920 180.800,91.801 180.800 C 91.682 180.800,90.823 180.310,89.892 179.710 C 87.167 177.955,86.433 177.623,86.181 178.030 M271.595 184.300 C 271.592 187.765,271.481 191.005,271.348 191.500 C 271.171 192.162,271.278 192.400,271.753 192.400 C 272.325 192.400,272.400 191.564,272.400 185.200 C 272.400 180.667,272.252 178.000,272.000 178.000 C 271.750 178.000,271.598 180.370,271.595 184.300 M95.814 183.577 C 95.483 184.112,96.527 185.200,97.371 185.200 C 97.717 185.200,98.000 185.380,98.000 185.600 C 98.000 185.820,98.360 186.000,98.800 186.000 C 99.240 186.000,99.600 186.180,99.600 186.400 C 99.600 186.620,99.836 186.800,100.125 186.800 C 100.413 186.800,101.036 187.160,101.508 187.600 C 101.980 188.040,102.644 188.400,102.983 188.400 C 103.322 188.400,103.600 188.580,103.600 188.800 C 103.600 189.020,103.920 189.200,104.312 189.200 C 104.703 189.200,105.283 189.560,105.600 190.000 C 105.917 190.440,106.497 190.800,106.888 190.800 C 107.280 190.800,107.600 190.980,107.600 191.200 C 107.600 191.420,107.960 191.600,108.400 191.600 C 108.840 191.600,109.200 191.780,109.200 192.000 C 109.200 192.220,109.436 192.400,109.725 192.400 C 110.013 192.400,110.636 192.760,111.108 193.200 C 111.884 193.923,113.200 194.300,113.200 193.800 C 113.200 193.227,111.535 192.050,111.009 192.252 C 110.674 192.380,110.400 192.304,110.400 192.082 C 110.400 191.732,108.159 190.127,107.000 189.647 C 106.780 189.556,105.858 188.975,104.951 188.356 C 104.044 187.738,103.215 187.319,103.108 187.425 C 103.001 187.532,102.695 187.356,102.428 187.033 C 102.160 186.711,101.685 186.546,101.371 186.667 C 101.057 186.787,100.800 186.704,100.800 186.482 C 100.800 186.093,98.146 184.327,97.836 184.510 C 97.752 184.560,97.323 184.273,96.882 183.874 C 96.356 183.398,95.988 183.296,95.814 183.577 M354.092 204.700 L 354.185 219.400 354.392 205.004 L 354.600 190.607 355.800 190.351 C 356.962 190.103,356.953 190.093,355.500 190.047 L 354.000 190.000 354.092 204.700 M357.600 190.153 C 357.600 190.238,358.050 190.393,358.600 190.498 C 359.150 190.603,359.600 190.534,359.600 190.345 C 359.600 190.155,359.150 190.000,358.600 190.000 C 358.050 190.000,357.600 190.069,357.600 190.153 M308.419 197.600 C 308.447 201.404,308.630 204.400,308.834 204.400 C 309.041 204.400,309.200 201.441,309.200 197.600 C 309.200 193.167,309.055 190.800,308.785 190.800 C 308.512 190.800,308.387 193.136,308.419 197.600 M323.600 199.424 C 323.600 205.071,323.738 207.962,324.000 207.800 C 324.246 207.648,324.400 204.329,324.400 199.176 C 324.400 193.859,324.254 190.800,324.000 190.800 C 323.746 190.800,323.600 193.941,323.600 199.424 M258.960 198.200 C 258.961 201.500,259.022 202.797,259.098 201.082 C 259.173 199.367,259.172 196.667,259.097 195.082 C 259.021 193.497,258.959 194.900,258.960 198.200 M156.800 197.600 C 156.800 197.820,157.070 198.000,157.400 198.000 C 157.730 198.000,158.000 197.820,158.000 197.600 C 158.000 197.380,157.730 197.200,157.400 197.200 C 157.070 197.200,156.800 197.380,156.800 197.600 M158.400 198.400 C 158.400 198.620,158.655 198.800,158.967 198.800 C 159.278 198.800,159.614 199.025,159.712 199.300 C 159.810 199.575,160.027 199.674,160.193 199.519 C 160.541 199.195,159.468 198.000,158.829 198.000 C 158.593 198.000,158.400 198.180,158.400 198.400 M162.400 200.800 C 162.400 201.020,162.670 201.200,163.000 201.200 C 163.330 201.200,163.600 201.380,163.600 201.600 C 163.600 201.820,163.945 202.000,164.367 202.000 C 164.788 202.000,165.214 202.225,165.312 202.500 C 165.410 202.775,165.627 202.874,165.793 202.719 C 166.197 202.343,165.020 201.200,164.229 201.200 C 163.883 201.200,163.600 201.020,163.600 200.800 C 163.600 200.580,163.330 200.400,163.000 200.400 C 162.670 200.400,162.400 200.580,162.400 200.800 M93.475 202.258 C 92.680 203.053,93.186 224.400,94.000 224.400 C 94.440 224.400,94.800 224.580,94.800 224.800 C 94.800 225.020,95.070 225.200,95.400 225.200 C 95.730 225.200,96.000 225.020,96.000 224.800 C 96.000 224.580,95.807 224.400,95.571 224.400 C 94.093 224.400,93.970 223.484,94.087 213.315 C 94.149 207.862,94.290 203.153,94.400 202.850 C 94.617 202.254,93.923 201.810,93.475 202.258 M95.200 203.200 C 95.200 203.420,95.470 203.600,95.800 203.600 C 96.130 203.600,96.400 203.780,96.400 204.000 C 96.400 204.220,96.745 204.400,97.167 204.400 C 97.588 204.400,98.014 204.625,98.112 204.900 C 98.210 205.175,98.427 205.274,98.593 205.119 C 98.997 204.743,97.820 203.600,97.029 203.600 C 96.683 203.600,96.400 203.420,96.400 203.200 C 96.400 202.980,96.130 202.800,95.800 202.800 C 95.470 202.800,95.200 202.980,95.200 203.200 M166.400 203.200 C 166.400 203.420,166.670 203.600,167.000 203.600 C 167.330 203.600,167.600 203.420,167.600 203.200 C 167.600 202.980,167.330 202.800,167.000 202.800 C 166.670 202.800,166.400 202.980,166.400 203.200 M168.000 204.000 C 168.000 204.220,168.255 204.400,168.567 204.400 C 168.878 204.400,169.214 204.625,169.312 204.900 C 169.410 205.175,169.627 205.274,169.793 205.119 C 170.141 204.795,169.068 203.600,168.429 203.600 C 168.193 203.600,168.000 203.780,168.000 204.000 M100.800 206.400 C 100.800 206.620,101.070 206.800,101.400 206.800 C 101.730 206.800,102.000 206.980,102.000 207.200 C 102.000 207.420,102.360 207.600,102.800 207.600 C 103.240 207.600,103.600 207.780,103.600 208.000 C 103.600 208.220,103.780 208.400,104.000 208.400 C 104.831 208.400,104.354 207.647,103.200 207.136 C 102.540 206.844,102.000 206.469,102.000 206.302 C 102.000 206.136,101.730 206.000,101.400 206.000 C 101.070 206.000,100.800 206.180,100.800 206.400 M172.000 206.400 C 172.000 206.620,172.270 206.800,172.600 206.800 C 172.930 206.800,173.200 206.980,173.200 207.200 C 173.200 207.420,173.560 207.600,174.000 207.600 C 174.779 207.600,174.800 207.867,174.800 217.837 C 174.800 227.738,174.774 228.082,174.000 228.284 C 172.784 228.602,173.045 229.200,174.400 229.200 L 175.600 229.200 175.600 218.571 C 175.600 207.453,175.502 206.800,173.829 206.800 C 173.483 206.800,173.200 206.620,173.200 206.400 C 173.200 206.180,172.930 206.000,172.600 206.000 C 172.270 206.000,172.000 206.180,172.000 206.400 M258.800 207.091 C 258.800 207.456,260.618 207.610,265.900 207.691 L 273.000 207.800 273.109 214.900 C 273.175 219.180,273.374 222.000,273.609 222.000 C 274.272 222.000,274.117 208.059,273.447 207.390 C 272.685 206.628,258.799 206.344,258.800 207.091 M104.800 208.800 C 104.800 209.020,105.070 209.200,105.400 209.200 C 105.730 209.200,106.000 209.020,106.000 208.800 C 106.000 208.580,105.730 208.400,105.400 208.400 C 105.070 208.400,104.800 208.580,104.800 208.800 M106.400 209.600 C 106.400 209.820,106.670 210.000,107.000 210.000 C 107.330 210.000,107.600 210.180,107.600 210.400 C 107.600 210.620,107.960 210.800,108.400 210.800 C 108.840 210.800,109.200 210.980,109.200 211.200 C 109.200 211.420,109.380 211.600,109.600 211.600 C 110.479 211.600,109.913 210.902,108.362 210.074 C 106.493 209.076,106.400 209.054,106.400 209.600 M288.400 210.576 C 288.400 211.113,288.580 211.664,288.800 211.800 C 289.033 211.944,289.200 211.537,289.200 210.824 C 289.200 210.151,289.020 209.600,288.800 209.600 C 288.580 209.600,288.400 210.039,288.400 210.576 M322.800 211.000 C 322.800 211.770,322.980 212.400,323.200 212.400 C 323.420 212.400,323.600 211.770,323.600 211.000 C 323.600 210.230,323.420 209.600,323.200 209.600 C 322.980 209.600,322.800 210.230,322.800 211.000 M110.400 212.000 C 110.400 212.220,110.670 212.400,111.000 212.400 C 111.330 212.400,111.600 212.220,111.600 212.000 C 111.600 211.780,111.330 211.600,111.000 211.600 C 110.670 211.600,110.400 211.780,110.400 212.000 M112.000 212.800 C 112.000 213.020,112.255 213.200,112.567 213.200 C 112.878 213.200,113.214 213.425,113.312 213.700 C 113.410 213.975,113.627 214.074,113.793 213.919 C 114.141 213.595,113.068 212.400,112.429 212.400 C 112.193 212.400,112.000 212.580,112.000 212.800 M289.200 213.200 C 289.200 213.640,289.380 214.000,289.600 214.000 C 289.820 214.000,290.000 214.283,290.000 214.629 C 290.000 215.291,291.113 216.620,291.415 216.318 C 291.661 216.072,290.667 214.007,290.300 214.003 C 290.135 214.001,290.000 213.640,290.000 213.200 C 290.000 212.760,289.820 212.400,289.600 212.400 C 289.380 212.400,289.200 212.760,289.200 213.200 M322.000 213.600 C 322.000 214.040,321.820 214.400,321.600 214.400 C 321.380 214.400,321.200 214.689,321.200 215.043 C 321.200 215.397,320.210 216.661,319.000 217.852 C 317.790 219.043,316.800 220.103,316.800 220.208 C 316.800 221.320,320.703 217.710,322.002 215.396 C 322.870 213.851,323.031 212.800,322.400 212.800 C 322.180 212.800,322.000 213.160,322.000 213.600 M116.000 215.200 C 116.000 215.420,116.270 215.600,116.600 215.600 C 116.930 215.600,117.200 215.420,117.200 215.200 C 117.200 214.980,116.930 214.800,116.600 214.800 C 116.270 214.800,116.000 214.980,116.000 215.200 M117.600 216.000 C 117.600 216.220,117.855 216.400,118.167 216.400 C 118.478 216.400,118.814 216.625,118.912 216.900 C 119.010 217.175,119.227 217.274,119.393 217.119 C 119.741 216.795,118.668 215.600,118.029 215.600 C 117.793 215.600,117.600 215.780,117.600 216.000 M291.838 217.138 C 291.605 217.516,293.461 219.600,294.031 219.600 C 294.208 219.600,294.464 219.420,294.600 219.200 C 294.736 218.980,294.580 218.800,294.253 218.800 C 293.926 218.800,293.299 218.344,292.861 217.787 C 292.422 217.229,291.962 216.937,291.838 217.138 M121.600 218.400 C 121.600 218.620,121.870 218.800,122.200 218.800 C 122.530 218.800,122.800 218.980,122.800 219.200 C 122.800 219.420,123.145 219.600,123.567 219.600 C 123.988 219.600,124.414 219.825,124.512 220.100 C 124.610 220.375,124.827 220.474,124.993 220.319 C 125.397 219.943,124.220 218.800,123.429 218.800 C 123.083 218.800,122.800 218.620,122.800 218.400 C 122.800 218.180,122.530 218.000,122.200 218.000 C 121.870 218.000,121.600 218.180,121.600 218.400 M154.704 234.700 L 154.600 251.400 148.300 251.510 C 139.587 251.663,140.001 252.400,148.800 252.400 L 155.600 252.400 155.600 235.833 C 155.600 226.721,155.709 218.981,155.843 218.633 C 156.002 218.219,155.865 218.000,155.447 218.000 C 154.875 218.000,154.798 219.719,154.704 234.700 M158.000 219.966 C 158.000 220.168,158.540 220.572,159.200 220.864 C 159.860 221.156,160.400 221.531,160.400 221.698 C 160.400 221.864,160.670 222.000,161.000 222.000 C 162.063 222.000,161.640 221.365,160.200 220.800 C 159.430 220.498,158.800 220.104,158.800 219.925 C 158.800 219.746,158.620 219.600,158.400 219.600 C 158.180 219.600,158.000 219.765,158.000 219.966 M294.800 219.829 C 294.800 220.298,295.965 221.200,296.571 221.200 C 296.917 221.200,297.200 221.380,297.200 221.600 C 297.200 221.820,297.650 222.000,298.200 222.000 C 298.750 222.000,299.200 221.820,299.200 221.600 C 299.200 221.380,298.750 221.200,298.200 221.200 C 297.650 221.200,297.200 221.020,297.200 220.800 C 297.200 220.580,296.930 220.400,296.600 220.400 C 296.270 220.400,296.000 220.220,296.000 220.000 C 296.000 219.780,295.730 219.600,295.400 219.600 C 295.070 219.600,294.800 219.703,294.800 219.829 M315.200 220.800 C 315.200 221.020,315.470 221.200,315.800 221.200 C 316.130 221.200,316.400 221.020,316.400 220.800 C 316.400 220.580,316.130 220.400,315.800 220.400 C 315.470 220.400,315.200 220.580,315.200 220.800 M127.200 221.600 C 127.200 221.820,127.470 222.000,127.800 222.000 C 128.130 222.000,128.400 222.180,128.400 222.400 C 128.400 222.620,128.745 222.800,129.167 222.800 C 129.588 222.800,130.014 223.025,130.112 223.300 C 130.210 223.575,130.427 223.674,130.593 223.519 C 130.997 223.143,129.820 222.000,129.029 222.000 C 128.683 222.000,128.400 221.820,128.400 221.600 C 128.400 221.380,128.130 221.200,127.800 221.200 C 127.470 221.200,127.200 221.380,127.200 221.600 M312.800 221.600 C 312.800 221.820,313.250 222.000,313.800 222.000 C 314.350 222.000,314.800 221.820,314.800 221.600 C 314.800 221.380,314.350 221.200,313.800 221.200 C 313.250 221.200,312.800 221.380,312.800 221.600 M212.500 222.296 C 213.765 222.375,215.835 222.375,217.100 222.296 C 218.365 222.216,217.330 222.151,214.800 222.151 C 212.270 222.151,211.235 222.216,212.500 222.296 M250.300 222.282 C 250.795 222.378,251.605 222.378,252.100 222.282 C 252.595 222.187,252.190 222.109,251.200 222.109 C 250.210 222.109,249.805 222.187,250.300 222.282 M270.300 222.282 C 270.795 222.378,271.605 222.378,272.100 222.282 C 272.595 222.187,272.190 222.109,271.200 222.109 C 270.210 222.109,269.805 222.187,270.300 222.282 M299.600 222.400 C 299.600 222.620,300.320 222.800,301.200 222.800 C 302.080 222.800,302.800 222.620,302.800 222.400 C 302.800 222.180,302.080 222.000,301.200 222.000 C 300.320 222.000,299.600 222.180,299.600 222.400 M308.800 222.400 C 308.800 222.620,309.610 222.800,310.600 222.800 C 311.590 222.800,312.400 222.620,312.400 222.400 C 312.400 222.180,311.590 222.000,310.600 222.000 C 309.610 222.000,308.800 222.180,308.800 222.400 M163.600 223.029 C 163.600 223.682,164.885 224.449,165.510 224.168 C 166.108 223.900,166.080 223.838,165.300 223.702 C 164.805 223.615,164.400 223.377,164.400 223.172 C 164.400 222.967,164.220 222.800,164.000 222.800 C 163.780 222.800,163.600 222.903,163.600 223.029 M132.800 224.800 C 132.800 225.020,133.070 225.200,133.400 225.200 C 133.730 225.200,134.000 225.020,134.000 224.800 C 134.000 224.580,133.730 224.400,133.400 224.400 C 133.070 224.400,132.800 224.580,132.800 224.800 M166.000 224.800 C 166.000 225.020,166.270 225.200,166.600 225.200 C 166.930 225.200,167.200 225.020,167.200 224.800 C 167.200 224.580,166.930 224.400,166.600 224.400 C 166.270 224.400,166.000 224.580,166.000 224.800 M98.000 226.229 C 98.000 226.621,99.122 227.600,99.571 227.600 C 99.807 227.600,100.000 227.420,100.000 227.200 C 100.000 226.980,99.730 226.800,99.400 226.800 C 99.070 226.800,98.800 226.620,98.800 226.400 C 98.800 226.180,98.620 226.000,98.400 226.000 C 98.180 226.000,98.000 226.103,98.000 226.229 M169.200 226.366 C 169.200 226.568,169.740 226.972,170.400 227.264 C 171.060 227.556,171.600 227.931,171.600 228.098 C 171.600 228.264,171.870 228.400,172.200 228.400 C 172.530 228.400,172.800 228.220,172.800 228.000 C 172.800 227.780,172.530 227.600,172.200 227.600 C 171.870 227.600,171.600 227.420,171.600 227.200 C 171.600 226.980,171.240 226.800,170.800 226.800 C 170.360 226.800,170.000 226.620,170.000 226.400 C 170.000 226.180,169.820 226.000,169.600 226.000 C 169.380 226.000,169.200 226.165,169.200 226.366 M100.400 228.000 C 100.400 228.220,100.670 228.400,101.000 228.400 C 101.330 228.400,101.600 228.220,101.600 228.000 C 101.600 227.780,101.330 227.600,101.000 227.600 C 100.670 227.600,100.400 227.780,100.400 228.000 M103.600 229.429 C 103.600 229.821,104.722 230.800,105.171 230.800 C 105.407 230.800,105.600 230.620,105.600 230.400 C 105.600 230.180,105.330 230.000,105.000 230.000 C 104.670 230.000,104.400 229.820,104.400 229.600 C 104.400 229.380,104.220 229.200,104.000 229.200 C 103.780 229.200,103.600 229.303,103.600 229.429 M106.000 231.200 C 106.000 231.420,106.270 231.600,106.600 231.600 C 106.930 231.600,107.200 231.420,107.200 231.200 C 107.200 230.980,106.930 230.800,106.600 230.800 C 106.270 230.800,106.000 230.980,106.000 231.200 M107.600 231.829 C 107.600 232.298,108.765 233.200,109.371 233.200 C 109.717 233.200,110.000 233.380,110.000 233.600 C 110.000 233.820,110.270 234.000,110.600 234.000 C 110.930 234.000,111.200 233.820,111.200 233.600 C 111.200 233.380,110.930 233.200,110.600 233.200 C 110.270 233.200,110.000 233.020,110.000 232.800 C 110.000 232.580,109.640 232.400,109.200 232.400 C 108.760 232.400,108.400 232.220,108.400 232.000 C 108.400 231.780,108.220 231.600,108.000 231.600 C 107.780 231.600,107.600 231.703,107.600 231.829 M209.200 234.400 C 209.200 234.634,210.541 234.800,212.424 234.800 C 214.471 234.800,215.557 234.654,215.400 234.400 C 215.264 234.180,213.813 234.000,212.176 234.000 C 210.459 234.000,209.200 234.169,209.200 234.400 M226.000 234.400 C 226.000 234.633,227.333 234.800,229.200 234.800 C 231.067 234.800,232.400 234.633,232.400 234.400 C 232.400 234.167,231.067 234.000,229.200 234.000 C 227.333 234.000,226.000 234.167,226.000 234.400 M240.400 234.400 C 240.400 234.629,241.608 234.800,243.224 234.800 C 245.004 234.800,245.956 234.652,245.800 234.400 C 245.664 234.180,244.393 234.000,242.976 234.000 C 241.525 234.000,240.400 234.175,240.400 234.400 M254.800 234.400 C 254.800 234.629,256.000 234.800,257.600 234.800 C 259.200 234.800,260.400 234.629,260.400 234.400 C 260.400 234.171,259.200 234.000,257.600 234.000 C 256.000 234.000,254.800 234.171,254.800 234.400 M261.467 234.267 C 260.840 234.894,261.359 235.017,264.000 234.868 L 266.800 234.710 266.800 241.955 C 266.800 246.518,266.948 249.200,267.200 249.200 C 267.997 249.200,267.710 235.171,266.900 234.557 C 266.183 234.013,261.947 233.786,261.467 234.267 M271.500 234.557 C 270.728 235.143,270.503 238.169,271.200 238.600 C 271.447 238.752,271.600 238.071,271.600 236.824 L 271.600 234.800 277.200 234.800 L 282.800 234.800 282.800 236.800 C 282.800 237.900,282.980 238.800,283.200 238.800 C 283.927 238.800,283.669 235.140,282.900 234.557 C 281.916 233.810,272.484 233.810,271.500 234.557 M287.067 234.267 C 286.621 234.712,286.751 251.600,287.200 251.600 C 287.454 251.600,287.600 248.533,287.600 243.200 L 287.600 234.800 290.000 234.800 L 292.400 234.800 292.400 243.200 C 292.400 248.533,292.546 251.600,292.800 251.600 C 293.412 251.600,293.335 235.095,292.720 234.480 C 292.217 233.977,287.533 233.801,287.067 234.267 M300.600 234.400 C 300.442 234.655,301.670 234.800,304.000 234.800 C 306.330 234.800,307.558 234.655,307.400 234.400 C 307.264 234.180,305.734 234.000,304.000 234.000 C 302.266 234.000,300.736 234.180,300.600 234.400 M315.067 234.267 C 314.621 234.712,314.751 251.600,315.200 251.600 C 315.454 251.600,315.600 248.533,315.600 243.200 L 315.600 234.800 318.024 234.800 C 319.537 234.800,320.354 234.650,320.200 234.400 C 319.927 233.958,315.491 233.843,315.067 234.267 M322.700 234.557 C 322.290 234.868,322.000 235.618,322.000 236.368 C 322.000 237.119,321.835 237.545,321.600 237.400 C 321.098 237.090,321.082 237.790,321.571 238.705 C 321.775 239.087,322.089 239.760,322.269 240.200 C 322.489 240.739,322.635 239.987,322.715 237.900 L 322.834 234.800 325.240 234.800 C 326.743 234.800,327.554 234.650,327.400 234.400 C 327.040 233.817,323.520 233.935,322.700 234.557 M335.600 234.400 C 335.600 234.634,336.941 234.800,338.824 234.800 C 340.871 234.800,341.957 234.654,341.800 234.400 C 341.664 234.180,340.213 234.000,338.576 234.000 C 336.859 234.000,335.600 234.169,335.600 234.400 M113.200 235.056 C 113.200 235.366,114.481 236.370,114.900 236.387 C 115.065 236.394,115.200 236.220,115.200 236.000 C 115.200 235.780,114.930 235.600,114.600 235.600 C 114.270 235.600,114.000 235.420,114.000 235.200 C 114.000 234.980,113.820 234.800,113.600 234.800 C 113.380 234.800,113.200 234.915,113.200 235.056 M206.473 235.427 C 206.183 235.755,206.029 236.334,206.131 236.712 C 206.284 237.285,206.364 237.249,206.604 236.500 C 206.763 236.005,207.052 235.600,207.247 235.600 C 207.441 235.600,207.600 235.420,207.600 235.200 C 207.600 234.629,207.087 234.732,206.473 235.427 M216.400 235.029 C 216.400 235.453,217.636 236.497,217.867 236.267 C 217.992 236.141,217.817 235.760,217.476 235.419 C 216.841 234.784,216.400 234.624,216.400 235.029 M223.300 235.398 C 222.699 236.081,222.648 236.800,223.200 236.800 C 223.420 236.800,223.600 236.530,223.600 236.200 C 223.600 235.870,223.780 235.600,224.000 235.600 C 224.220 235.600,224.400 235.420,224.400 235.200 C 224.400 234.637,223.889 234.729,223.300 235.398 M298.460 235.442 C 297.731 236.266,298.200 236.657,298.981 235.876 C 299.321 235.536,299.600 235.154,299.600 235.029 C 299.600 234.609,299.006 234.824,298.460 235.442 M308.400 234.967 C 308.400 235.388,309.605 236.528,309.821 236.312 C 309.922 236.211,309.644 235.802,309.202 235.402 C 308.761 235.003,308.400 234.807,308.400 234.967 M332.800 235.799 C 332.506 236.349,332.393 236.926,332.549 237.082 C 332.704 237.238,332.936 236.968,333.063 236.483 C 333.189 235.997,333.452 235.600,333.647 235.600 C 333.841 235.600,334.000 235.420,334.000 235.200 C 334.000 234.461,333.340 234.791,332.800 235.799 M342.800 235.029 C 342.800 235.453,344.036 236.497,344.267 236.267 C 344.392 236.141,344.217 235.760,343.876 235.419 C 343.241 234.784,342.800 234.624,342.800 235.029 M115.600 236.800 C 115.600 237.020,115.870 237.200,116.200 237.200 C 116.530 237.200,116.800 237.020,116.800 236.800 C 116.800 236.580,116.530 236.400,116.200 236.400 C 115.870 236.400,115.600 236.580,115.600 236.800 M234.800 243.176 C 234.800 247.459,234.949 250.000,235.200 250.000 C 235.450 250.000,235.600 247.541,235.600 243.424 C 235.600 239.471,235.440 236.749,235.200 236.600 C 234.939 236.439,234.800 238.729,234.800 243.176 M117.200 237.526 C 117.200 237.805,120.175 239.600,120.638 239.600 C 120.727 239.600,120.800 239.420,120.800 239.200 C 120.800 238.980,120.530 238.800,120.200 238.800 C 119.870 238.800,119.600 238.620,119.600 238.400 C 119.600 238.180,119.240 238.000,118.800 238.000 C 118.360 238.000,118.000 237.820,118.000 237.600 C 118.000 237.380,117.820 237.200,117.600 237.200 C 117.380 237.200,117.200 237.347,117.200 237.526 M229.200 243.024 C 229.200 245.737,229.057 247.159,228.800 247.000 C 228.580 246.864,228.400 246.943,228.400 247.176 C 228.400 247.409,228.760 247.600,229.200 247.600 C 229.952 247.600,230.000 247.333,230.000 243.200 C 230.000 240.533,229.842 238.800,229.600 238.800 C 229.359 238.800,229.200 240.475,229.200 243.024 M274.000 245.200 C 274.000 249.200,274.150 251.600,274.400 251.600 C 274.650 251.600,274.800 249.200,274.800 245.200 C 274.800 241.200,274.650 238.800,274.400 238.800 C 274.150 238.800,274.000 241.200,274.000 245.200 M279.600 245.200 C 279.600 249.200,279.750 251.600,280.000 251.600 C 280.250 251.600,280.400 249.200,280.400 245.200 C 280.400 241.200,280.250 238.800,280.000 238.800 C 279.750 238.800,279.600 241.200,279.600 245.200 M122.800 240.629 C 122.800 241.021,123.922 242.000,124.371 242.000 C 124.607 242.000,124.800 241.820,124.800 241.600 C 124.800 241.380,124.530 241.200,124.200 241.200 C 123.870 241.200,123.600 241.020,123.600 240.800 C 123.600 240.580,123.420 240.400,123.200 240.400 C 122.980 240.400,122.800 240.503,122.800 240.629 M211.600 240.856 C 211.600 241.045,212.614 241.200,213.853 241.200 C 215.664 241.200,216.253 241.370,216.856 242.064 C 217.268 242.539,217.726 242.808,217.873 242.660 C 218.021 242.512,217.795 242.129,217.371 241.809 C 216.671 241.279,216.664 241.224,217.300 241.213 C 217.685 241.206,218.000 241.011,218.000 240.779 C 218.000 240.513,216.821 240.387,214.800 240.436 C 213.040 240.478,211.600 240.667,211.600 240.856 M338.800 240.800 C 338.800 241.020,339.634 241.200,340.653 241.200 C 342.054 241.200,342.689 241.411,343.256 242.064 C 343.668 242.539,344.126 242.808,344.273 242.660 C 344.421 242.512,344.195 242.129,343.771 241.809 C 343.071 241.279,343.064 241.224,343.700 241.213 C 345.935 241.172,343.940 240.400,341.600 240.400 C 340.000 240.400,338.800 240.571,338.800 240.800 M125.200 242.400 C 125.200 242.620,125.470 242.800,125.800 242.800 C 126.130 242.800,126.400 242.620,126.400 242.400 C 126.400 242.180,126.130 242.000,125.800 242.000 C 125.470 242.000,125.200 242.180,125.200 242.400 M128.400 243.856 C 128.400 244.166,129.681 245.170,130.100 245.187 C 130.265 245.194,130.400 245.020,130.400 244.800 C 130.400 244.580,130.130 244.400,129.800 244.400 C 129.470 244.400,129.200 244.220,129.200 244.000 C 129.200 243.780,129.020 243.600,128.800 243.600 C 128.580 243.600,128.400 243.715,128.400 243.856 M206.500 244.998 C 205.798 245.796,205.876 246.533,206.633 246.243 C 206.981 246.109,208.251 246.000,209.456 246.000 C 210.815 246.000,211.553 245.848,211.400 245.600 C 211.264 245.380,210.353 245.200,209.376 245.200 C 208.399 245.200,207.600 245.020,207.600 244.800 C 207.600 244.237,207.089 244.329,206.500 244.998 M332.900 244.998 C 332.198 245.796,332.276 246.533,333.033 246.243 C 333.381 246.109,334.651 246.000,335.856 246.000 C 337.215 246.000,337.953 245.848,337.800 245.600 C 337.664 245.380,336.753 245.200,335.776 245.200 C 334.799 245.200,334.000 245.020,334.000 244.800 C 334.000 244.237,333.489 244.329,332.900 244.998 M130.800 245.600 C 130.800 245.820,131.070 246.000,131.400 246.000 C 131.730 246.000,132.000 245.820,132.000 245.600 C 132.000 245.380,131.730 245.200,131.400 245.200 C 131.070 245.200,130.800 245.380,130.800 245.600 M132.400 246.229 C 132.400 246.698,133.565 247.600,134.171 247.600 C 134.517 247.600,134.800 247.780,134.800 248.000 C 134.800 248.220,135.070 248.400,135.400 248.400 C 135.730 248.400,136.000 248.220,136.000 248.000 C 136.000 247.780,135.730 247.600,135.400 247.600 C 135.070 247.600,134.800 247.420,134.800 247.200 C 134.800 246.980,134.440 246.800,134.000 246.800 C 133.560 246.800,133.200 246.620,133.200 246.400 C 133.200 246.180,133.020 246.000,132.800 246.000 C 132.580 246.000,132.400 246.103,132.400 246.229 M138.000 249.429 C 138.000 249.898,139.165 250.800,139.771 250.800 C 140.117 250.800,140.400 250.980,140.400 251.200 C 140.400 251.420,140.670 251.600,141.000 251.600 C 141.330 251.600,141.600 251.420,141.600 251.200 C 141.600 250.980,141.330 250.800,141.000 250.800 C 140.670 250.800,140.400 250.620,140.400 250.400 C 140.400 250.180,140.040 250.000,139.600 250.000 C 139.160 250.000,138.800 249.820,138.800 249.600 C 138.800 249.380,138.620 249.200,138.400 249.200 C 138.180 249.200,138.000 249.303,138.000 249.429 M222.813 249.676 C 222.832 250.473,223.951 251.785,224.296 251.416 C 224.463 251.237,224.375 251.010,224.100 250.912 C 223.825 250.814,223.600 250.489,223.600 250.190 C 223.600 249.892,223.420 249.536,223.200 249.400 C 222.980 249.264,222.806 249.388,222.813 249.676 M216.860 250.642 C 216.131 251.466,216.600 251.857,217.381 251.076 C 217.721 250.736,218.000 250.354,218.000 250.229 C 218.000 249.809,217.406 250.024,216.860 250.642 M254.800 250.229 C 254.800 250.653,256.036 251.697,256.267 251.467 C 256.392 251.341,256.217 250.960,255.876 250.619 C 255.241 249.984,254.800 249.824,254.800 250.229 M298.000 250.229 C 298.000 250.653,299.236 251.697,299.467 251.467 C 299.592 251.341,299.417 250.960,299.076 250.619 C 298.441 249.984,298.000 249.824,298.000 250.229 M308.900 250.598 C 308.331 251.245,308.261 251.600,308.704 251.600 C 308.871 251.600,309.232 251.240,309.507 250.800 C 310.078 249.887,309.651 249.745,308.900 250.598 M343.260 250.642 C 342.531 251.466,343.000 251.857,343.781 251.076 C 344.121 250.736,344.400 250.354,344.400 250.229 C 344.400 249.809,343.806 250.024,343.260 250.642 M322.000 251.000 C 322.000 251.330,322.180 251.600,322.400 251.600 C 322.620 251.600,322.800 251.330,322.800 251.000 C 322.800 250.670,322.620 250.400,322.400 250.400 C 322.180 250.400,322.000 250.670,322.000 251.000 " stroke="none" fill="#95d4f3" fill-rule="evenodd"></path><path id="path4" d="M304.884 150.615 C 304.540 151.005,303.574 151.200,301.984 151.200 C 300.661 151.200,299.600 151.378,299.600 151.600 C 299.600 151.820,299.150 152.000,298.600 152.000 C 298.050 152.000,297.600 152.180,297.600 152.400 C 297.600 152.620,297.285 152.804,296.900 152.809 C 295.292 152.830,290.400 159.174,290.400 161.238 C 290.400 161.657,290.220 162.000,290.000 162.000 C 289.780 162.000,289.600 162.801,289.600 163.780 C 289.600 164.767,289.377 165.703,289.100 165.880 C 288.710 166.129,288.600 170.837,288.600 187.200 C 288.600 203.563,288.710 208.271,289.100 208.520 C 289.375 208.696,289.600 209.461,289.600 210.220 C 289.600 210.979,289.780 211.600,290.000 211.600 C 290.220 211.600,290.400 211.842,290.400 212.139 C 290.400 214.649,296.693 220.800,299.261 220.800 C 299.668 220.800,300.000 220.980,300.000 221.200 C 300.000 221.449,302.259 221.600,305.976 221.600 C 309.529 221.600,312.053 221.438,312.200 221.200 C 312.336 220.980,312.887 220.800,313.424 220.800 C 313.961 220.800,314.400 220.620,314.400 220.400 C 314.400 220.180,314.760 220.000,315.200 220.000 C 315.640 220.000,316.000 219.820,316.000 219.600 C 316.000 219.380,316.253 219.200,316.563 219.200 C 317.260 219.200,320.800 215.320,320.800 214.557 C 320.800 214.251,320.980 214.000,321.200 214.000 C 321.420 214.000,321.600 213.550,321.600 213.000 C 321.600 212.450,321.770 212.000,321.978 212.000 C 322.186 212.000,322.411 211.145,322.478 210.100 C 322.565 208.739,322.756 208.233,323.151 208.317 C 323.545 208.401,323.632 208.173,323.457 207.517 C 323.321 207.013,323.208 203.045,323.205 198.700 L 323.200 190.800 316.643 190.800 C 308.817 190.800,309.600 189.888,309.600 199.009 C 309.600 203.207,309.442 206.051,309.200 206.200 C 308.980 206.336,308.800 206.765,308.800 207.154 C 308.800 208.975,305.484 210.305,304.000 209.079 C 302.421 207.776,302.400 207.471,302.400 186.105 L 302.401 165.400 303.347 164.300 C 304.950 162.436,308.800 163.016,308.800 165.120 C 308.800 165.578,308.980 166.064,309.200 166.200 C 309.440 166.349,309.600 169.071,309.600 173.024 L 309.600 179.600 316.600 179.600 L 323.600 179.600 323.600 172.376 C 323.600 168.226,323.448 165.247,323.242 165.374 C 322.727 165.692,322.400 164.603,322.400 162.567 C 322.400 161.595,322.220 160.800,322.000 160.800 C 321.780 160.800,321.600 160.520,321.600 160.178 C 321.600 159.274,318.630 155.043,317.455 154.273 C 315.280 152.847,313.539 152.000,312.788 152.000 C 312.355 152.000,312.000 151.820,312.000 151.600 C 312.000 151.380,311.044 151.200,309.876 151.200 C 308.629 151.200,307.433 150.958,306.976 150.613 C 306.002 149.875,305.536 149.876,304.884 150.615 M197.200 157.562 L 197.200 163.925 199.100 164.155 C 200.145 164.282,201.900 164.335,203.000 164.273 C 206.750 164.062,206.400 161.061,206.400 193.414 L 206.400 222.000 213.200 222.000 L 220.000 222.000 220.000 193.424 C 220.000 170.996,220.108 164.780,220.500 164.534 C 220.775 164.362,222.530 164.216,224.400 164.211 L 227.800 164.200 227.910 157.700 L 228.020 151.200 212.610 151.200 L 197.200 151.200 197.200 157.562 M244.000 186.600 L 244.000 222.000 258.400 222.000 L 272.800 222.000 272.800 215.000 L 272.800 208.000 265.400 208.000 L 258.000 208.000 258.006 200.100 C 258.014 190.340,257.328 191.245,264.817 191.111 L 271.000 191.000 271.119 185.800 C 271.185 182.940,271.131 180.015,271.001 179.300 L 270.764 178.000 264.382 178.000 L 258.000 178.000 258.000 171.600 L 258.000 165.200 265.000 165.200 L 272.000 165.200 272.000 158.200 L 272.000 151.200 258.000 151.200 L 244.000 151.200 244.000 186.600 M340.000 186.600 L 340.000 222.000 347.000 222.000 L 354.000 222.000 354.000 206.030 L 354.000 190.061 357.235 189.930 C 359.014 189.859,360.544 189.875,360.635 189.967 C 360.726 190.058,360.800 197.303,360.800 206.067 L 360.800 222.000 367.200 222.000 L 373.600 222.000 373.600 186.600 L 373.600 151.200 367.200 151.200 L 360.800 151.200 360.800 163.520 C 360.800 177.730,361.079 176.800,356.820 176.800 L 353.800 176.801 353.921 164.000 L 354.042 151.200 347.021 151.200 L 340.000 151.200 340.000 186.600 " stroke="none" fill="#04acec" fill-rule="evenodd"></path></g></svg>